<svg width="21" height="21" viewBox="0 0 21 21" fill="none" xmlns="http://www.w3.org/2000/svg">
<path fill-rule="evenodd" clip-rule="evenodd" d="M18.8334 10.2635C18.8334 14.8635 15.0917 18.5968 10.5001 18.5968L10.2669 18.5936C5.7746 18.47 2.16675 14.7855 2.16675 10.2635C2.16675 5.67184 5.90008 1.93018 10.5001 1.93018C15.0917 1.93018 18.8334 5.67184 18.8334 10.2635ZM8.85008 6.93018C8.60841 7.18018 8.60841 7.57184 8.85841 7.81351L11.3167 10.2635L8.85841 12.7135C8.60841 12.9552 8.60841 13.3552 8.85008 13.5968C9.10008 13.8468 9.49175 13.8468 9.73341 13.5968L12.6417 10.7052C12.7584 10.5885 12.8251 10.4302 12.8251 10.2635C12.8251 10.0968 12.7584 9.93851 12.6417 9.82184L9.73341 6.93018C9.61675 6.80518 9.45841 6.74684 9.30008 6.74684C9.13341 6.74684 8.97508 6.80518 8.85008 6.93018Z" fill="#8B1042"/>
</svg>
