<svg width="35" height="36" viewBox="0 0 35 36" fill="none" xmlns="http://www.w3.org/2000/svg">
<path d="M17.4999 32.7956L17.5068 33.2956H17.4999V32.7956ZM17.9079 32.79L17.9217 33.2898L17.9148 33.2899L17.9079 32.79ZM20.3728 13.9247L20.0198 13.5705L20.0253 13.5652L20.3728 13.9247ZM20.3874 12.3789L20.741 12.0253L20.7469 12.0314L20.3874 12.3789ZM16.0708 18.2122L15.7178 18.5664L15.3624 18.2122L15.7178 17.8581L16.0708 18.2122ZM20.3728 22.4997L20.0253 22.8593L20.0199 22.8539L20.3728 22.4997ZM18.8416 24.0456L19.1942 23.6909L19.2011 23.6981L18.8416 24.0456ZM13.752 18.9852L13.3995 19.3397L13.3984 19.3387L13.752 18.9852ZM13.752 17.4393L13.3984 17.0858L13.3995 17.0848L13.752 17.4393ZM18.8416 12.3789L19.2071 12.7201L19.2007 12.7269L19.1941 12.7335L18.8416 12.3789ZM17.4999 33.2956C9.18868 33.2956 2.41658 26.5387 2.41658 18.2122H3.41658C3.41658 25.9858 9.74032 32.2956 17.4999 32.2956V33.2956ZM17.9148 33.2899L17.5068 33.2955L17.4931 32.2956L17.901 32.29L17.9148 33.2899ZM32.5833 18.2122C32.5833 26.3974 26.0532 33.0661 17.9217 33.2898L17.8942 32.2902C25.4858 32.0813 31.5833 25.8542 31.5833 18.2122H32.5833ZM17.4999 3.12891C25.8264 3.12891 32.5833 9.90101 32.5833 18.2122H31.5833C31.5833 10.4526 25.2735 4.12891 17.4999 4.12891V3.12891ZM2.41658 18.2122C2.41658 9.90068 9.18836 3.12891 17.4999 3.12891V4.12891C9.74064 4.12891 3.41658 10.453 3.41658 18.2122H2.41658ZM20.0253 13.5652C20.2573 13.341 20.2658 12.9725 20.0279 12.7264L20.7469 12.0314C21.3549 12.6603 21.3634 13.6626 20.7203 14.2842L20.0253 13.5652ZM15.7178 17.8581L20.0199 13.5706L20.7258 14.2789L16.4237 18.5664L15.7178 17.8581ZM20.0199 22.8539L15.7178 18.5664L16.4237 17.8581L20.7258 22.1456L20.0199 22.8539ZM20.0339 23.692C20.2605 23.4654 20.2605 23.0866 20.0253 22.8592L20.7203 22.1402C21.3601 22.7587 21.3602 23.7799 20.741 24.3991L20.0339 23.692ZM19.2011 23.6981C19.4242 23.9289 19.7882 23.9376 20.0339 23.692L20.741 24.3991C20.1116 25.0285 19.1048 25.0373 18.4821 24.3931L19.2011 23.6981ZM14.1045 18.6306L19.1941 23.691L18.489 24.4001L13.3995 19.3397L14.1045 18.6306ZM13.9312 18.2122C13.9312 18.3698 13.9941 18.5201 14.1056 18.6316L13.3984 19.3387C13.1016 19.0418 12.9312 18.638 12.9312 18.2122H13.9312ZM14.1056 17.7929C13.9941 17.9043 13.9312 18.0547 13.9312 18.2122H12.9312C12.9312 17.7865 13.1016 17.3826 13.3984 17.0858L14.1056 17.7929ZM19.1941 12.7335L14.1045 17.7939L13.3995 17.0848L18.489 12.0243L19.1941 12.7335ZM19.5999 12.5581C19.4449 12.5581 19.306 12.6141 19.2071 12.7201L18.4761 12.0377C18.7855 11.7062 19.2008 11.5581 19.5999 11.5581V12.5581ZM20.0339 12.7325C19.9162 12.6148 19.7697 12.5581 19.5999 12.5581V11.5581C20.0135 11.5581 20.4212 11.7055 20.741 12.0254L20.0339 12.7325Z" fill="#F14B8F"/>
</svg>
