<svg width="35" height="36" viewBox="0 0 35 36" fill="none" xmlns="http://www.w3.org/2000/svg">
<path fill-rule="evenodd" clip-rule="evenodd" d="M32.0834 18.2122C32.0834 26.2622 25.5355 32.7956 17.5001 32.7956L17.0921 32.79C9.23049 32.5737 2.91675 26.1258 2.91675 18.2122C2.91675 10.1768 9.45008 3.62891 17.5001 3.62891C25.5355 3.62891 32.0834 10.1768 32.0834 18.2122ZM14.6126 12.3789C14.1897 12.8164 14.1897 13.5018 14.6272 13.9247L18.9292 18.2122L14.6272 22.4997C14.1897 22.9227 14.1897 23.6227 14.6126 24.0456C15.0501 24.4831 15.7355 24.4831 16.1584 24.0456L21.248 18.9852C21.4522 18.781 21.5688 18.5039 21.5688 18.2122C21.5688 17.9206 21.4522 17.6435 21.248 17.4393L16.1584 12.3789C15.9542 12.1602 15.6772 12.0581 15.4001 12.0581C15.1084 12.0581 14.8313 12.1602 14.6126 12.3789Z" fill="#F14B8F"/>
</svg>
