<svg width="375" height="151" viewBox="0 0 375 151" fill="none" xmlns="http://www.w3.org/2000/svg">
<g filter="url(#filter0_d_363_3010)">
<g clip-path="url(#clip0_363_3010)">
<rect x="19.5" y="16.7119" width="336" height="110" rx="8" fill="#F14B8F"/>
<path fill-rule="evenodd" clip-rule="evenodd" d="M142.671 37.7838C142.903 38.265 142.787 38.0191 143.146 38.3826C143.39 38.5003 143.622 38.6179 143.855 38.7462C145.282 39.4734 147.533 39.591 149.077 39.1098C147.417 37.6662 145.398 36.3402 142.66 37.7838H142.671ZM129.849 39.1098C131.276 39.591 133.643 39.4734 135.07 38.7462C135.906 38.3826 136.022 38.265 136.254 37.7838C133.4 36.3402 131.624 37.5486 129.838 39.1098H129.849ZM148.844 36.2226H147.533C148.242 37.3026 149.193 37.7838 149.912 39.345C149.436 39.9439 147.893 40.7886 147.184 41.1522C147.301 41.3875 147.184 41.2698 147.417 41.3875C148.728 42.2322 151.096 40.9063 152.998 40.9063L150.271 37.0567C149.795 36.5755 149.32 36.5755 148.844 36.2119V36.2226ZM131.508 36.2226H130.197C129.246 36.8214 128.887 36.7038 127.819 38.1474C127.343 38.9922 126.392 40.0722 126.043 40.917C127.47 40.917 130.789 42.3605 131.857 41.2805C131.381 40.917 130.906 40.6817 130.43 40.4358C129.954 40.0722 129.479 39.7193 129.119 39.4734C129.362 38.1474 130.779 36.9498 131.498 36.2226H131.508ZM120.345 43.5582C122.132 43.6758 125.092 44.157 126.286 43.4406C125.451 42.7134 124.035 42.5958 123.316 41.7617C123.548 40.5641 124.859 39.1205 125.335 38.3933C122.132 38.2757 121.656 42.2429 120.345 43.5582ZM155.609 41.997C155.134 42.1146 154.774 42.4782 154.182 42.7134C153.95 42.8311 153.707 42.9487 153.474 42.9487L152.766 43.4299C153.833 44.3923 157.036 43.5475 158.58 43.6651C158.347 43.0663 157.988 42.5851 157.745 41.9863C156.677 40.0615 156.318 38.5003 153.707 38.3826C154.182 39.345 155.609 40.4251 155.609 41.9863V41.997ZM156.92 46.1994C157.163 47.7607 162.026 48.0066 163.093 48.9583C163.093 48.5947 162.501 44.8735 162.385 44.3923C162.026 42.7134 161.317 41.751 159.774 41.2698C160.134 42.5958 160.725 43.6758 160.725 45.1194C160.725 46.0818 160.134 45.9642 159.298 46.0818C158.463 46.0818 157.755 46.1994 156.92 46.1994ZM115.832 48.9583C116.307 48.7231 116.783 48.4771 117.375 48.2419C118.802 47.8783 121.413 47.5254 122.005 46.1994C121.054 46.1994 119.151 46.1994 118.326 45.7182C118.083 43.9111 118.802 42.7134 119.162 41.2698C117.851 41.751 116.899 42.8311 116.551 44.2746C116.318 45.237 115.959 47.8783 115.842 48.9583H115.832ZM112.037 54.6044C112.629 54.3691 112.988 54.0055 113.58 53.7596C114.764 53.1608 117.259 52.4336 117.735 50.8724C116.424 50.99 115.356 51.236 113.94 51.1077C113.823 50.3912 113.707 49.6641 113.823 48.8193C113.823 48.1028 114.056 47.2581 114.056 46.5309C111.329 48.3381 112.153 50.6158 112.037 54.583V54.6044ZM165.112 51.1183C163.569 51.236 162.618 51.0007 161.191 50.8831C161.55 51.8455 162.734 52.5619 163.802 53.0431C166.18 54.1232 164.869 53.5243 166.888 54.722C167.004 52.0807 167.596 47.6323 164.869 46.6699C165.112 48.4771 165.345 49.1936 165.112 51.1183ZM108.95 60.614C111.202 58.6892 109.542 60.0152 112.037 58.3256C113.105 57.6092 114.288 56.7644 114.648 55.4384C113.464 55.5561 112.153 56.4008 110.494 56.2832C109.659 54.6044 110.134 53.2784 109.902 51.3536C107.048 53.642 108.591 56.882 108.95 60.6033V60.614ZM168.558 56.2832C167.131 56.5184 165.704 55.6844 164.404 55.4384C164.88 57.7268 167.966 58.6892 169.393 59.8868C169.626 60.1328 169.753 60.2504 169.985 60.614C170.229 60.2504 170.694 56.4115 170.82 55.5667C170.937 53.5243 170.112 52.1984 169.161 51.3643C169.045 53.1715 169.277 54.6044 168.569 56.2939L168.558 56.2832ZM170.937 62.6564C169.393 62.5388 168.21 61.3304 167.015 60.8492C167.131 63.0093 169.393 64.5812 170.218 65.6612C170.694 66.1424 170.926 66.506 171.286 67.1048L173.072 62.774C173.78 61.0952 173.664 59.1704 172.596 57.962C172.364 58.1973 172.121 59.8868 171.888 60.368C171.656 61.3304 171.296 61.8116 170.937 62.6564ZM107.65 67.2224C107.766 66.9765 108.126 66.3777 108.718 65.6612C109.193 65.18 109.553 64.8164 110.028 64.3352C110.737 63.4905 111.815 62.2928 112.047 60.8492C110.864 61.3304 109.796 62.4104 108.126 62.6564C107.65 62.1752 107.418 61.3304 107.058 60.614C106.826 59.534 106.699 58.3256 106.35 57.9727C105.758 59.534 104.923 60.0152 105.874 62.7847L107.661 67.2331L107.65 67.2224ZM171.888 69.1472C171.053 68.7836 170.704 68.4308 170.102 67.9496C169.626 67.586 169.034 66.7519 168.442 66.506C168.442 68.912 169.626 69.992 170.694 71.9168C171.053 72.6332 171.169 73.1144 171.529 73.7239L174.023 69.8744C175.091 68.1955 175.334 67.1155 174.499 64.9448C173.907 65.5436 173.431 68.0672 171.888 69.1472ZM107.523 73.7132C107.64 73.3497 107.999 72.3873 108.231 71.9061C109.183 70.2272 110.483 68.9013 110.483 66.4953C109.648 66.7305 108.348 68.9013 106.921 69.1365C106.445 68.5377 105.969 67.9389 105.494 67.0941C105.134 66.4953 104.785 65.2869 104.426 64.9341C103.358 68.4201 104.426 69.0189 106.202 71.6601C106.561 72.259 107.037 73.2213 107.513 73.7025L107.523 73.7132ZM138.876 74.0768C137.808 73.5956 135.673 72.2696 135.43 71.1896C135.197 69.746 137.565 68.9013 138.992 68.666L138.876 74.0768ZM141.963 69.0296C143.03 69.6284 144.817 70.1096 144.69 71.6708C144.69 72.7508 142.903 73.8309 141.836 74.1944L141.952 69.0296H141.963ZM109.193 81.53C109.426 79.124 111.688 75.1568 110.504 73.8416C110.029 74.804 108.718 76.6111 107.893 77.2099C106.107 76.3652 104.807 73.8416 104.331 73.7239C104.098 76.0123 104.69 77.2099 105.874 78.29L109.204 81.5407L109.193 81.53ZM171.18 77.1992C170.472 76.8357 169.637 75.5204 169.161 74.7933L168.326 73.8309C167.734 77.1992 169.51 78.5145 169.869 81.5193C170.112 81.2841 171.053 80.1934 171.296 79.9581C171.888 79.3593 172.48 78.9957 173.083 78.3969C174.393 76.9533 174.985 76.3545 174.626 73.7132C174.383 73.7132 172.607 76.4828 171.18 77.1992ZM141.614 78.5252C142.206 78.6428 142.924 79.8512 143.041 80.6853C143.041 81.7653 142.206 82.2465 141.381 82.4924L141.614 78.5252ZM138.643 82.6101C137.692 82.3748 136.624 81.53 136.984 80.2041C137.1 79.3593 138.051 78.3969 138.77 78.044L138.654 82.6101H138.643ZM139.119 57.4915C137.692 57.6092 134.605 57.3739 134.256 58.3363L134.024 59.534C135.81 59.4163 136.878 60.0152 137.586 61.2128C138.294 62.2928 138.654 63.9824 138.77 65.4153C136.519 64.9341 132.005 62.5281 130.578 60.6033C129.394 59.2773 129.035 57.2349 130.578 56.2725C132.713 54.9465 134.5 55.9089 136.392 55.5561L136.624 53.6313C134.13 53.3853 131.286 53.3853 129.5 54.476C127.84 55.4384 126.772 57.5985 127.713 60.1221C128.421 61.9293 130.092 63.2445 131.635 64.2069C133.538 65.5329 136.508 66.6129 136.973 67.0941C135.197 67.9389 132.459 68.9013 133.411 71.9061C134.003 74.0661 137.333 75.3921 137.925 75.9909C137.333 76.718 134.605 77.9157 134.722 80.8029C134.722 82.0005 135.314 82.8453 136.032 83.4441C137.216 84.5241 137.935 84.2889 138.643 84.7701C138.76 86.6949 138.643 88.7373 138.76 90.6621C138.992 92.7045 139.235 94.3834 139.468 96.1905C139.827 95.8269 140.06 94.1481 140.176 93.5493C140.652 90.6621 141.011 87.6573 141.127 84.6525C142.438 84.2889 142.787 84.2889 143.738 83.5724C145.525 82.1289 145.525 79.9688 144.33 78.1616C143.855 77.4452 143.622 77.1992 142.903 76.7181C142.671 76.4721 142.544 76.4721 142.428 76.1192C143.136 75.884 144.563 75.0392 145.155 74.6756C147.766 72.6332 147.29 69.6284 144.447 68.0672L143.136 67.2224C144.563 66.8589 147.65 65.4153 148.833 64.6988C151.328 63.1376 154.774 60.368 153.463 57.128C152.396 54.3691 147.174 53.642 144.436 53.642V53.8772C144.359 53.8772 144.32 53.9164 144.32 53.9948V54.476C144.203 54.8396 144.203 55.1925 144.203 55.5561C158.928 56.2725 148.242 63.9717 142.068 65.4153C142.068 61.8116 141.709 61.9292 143.971 60.6033C145.514 59.8761 147.058 59.2773 148.96 58.9244L149.077 57.5985C145.398 57.5985 145.514 57.5985 141.836 57.2349C141.952 53.7489 141.719 50.7441 139.817 47.9852C135.07 41.3768 130.789 47.1404 133.4 48.3488C135.652 49.3112 137.438 49.6748 138.506 53.1608C138.865 54.2408 139.214 56.4115 139.098 57.4915H139.119ZM110.145 83.3265C106.942 83.0912 104.923 80.3217 104.447 80.0757C104.807 83.0806 105.631 83.8077 107.534 85.123C110.62 87.0478 111.339 86.203 111.931 88.8549C109.553 88.6197 108.369 87.4113 106.942 86.3313C108.009 92.3409 114.31 91.7421 115.25 93.1857C115.483 93.5493 115.959 94.2657 115.959 94.6293C113.105 94.7469 112.756 94.2657 110.494 93.5493C110.737 94.2764 111.804 95.5917 112.28 95.9553C113.823 97.2812 116.677 97.3989 118.696 97.5165C119.764 97.5165 119.764 97.3989 120.356 97.9977C120.715 98.3612 121.064 98.5965 121.307 99.0777C118.813 99.3129 117.745 99.0777 115.494 98.7141C116.085 100.275 117.872 101.719 120.007 101.965L127.724 101.73C127.491 101.366 127.132 101.131 126.889 100.65C126.18 99.6872 125.578 98.0084 124.986 96.8C124.151 94.9929 123.2 93.4316 121.667 92.7152C121.783 94.394 122.259 95.1212 122.259 98.2436C121.783 98.0084 121.191 96.9177 120.715 96.3188C119.764 94.9929 120.599 93.314 119.172 90.908C118.813 90.1809 117.988 89.3468 117.269 89.1009C117.386 90.2985 118.104 93.4316 117.386 94.394C116.91 94.0305 116.551 92.8328 116.318 92.1057C115.726 90.6621 116.085 90.6621 116.202 89.1009C116.445 87.422 115.969 84.4172 114.658 84.0536C114.542 85.1337 114.183 88.7373 113.348 89.1009C112.756 88.8656 112.639 87.422 112.396 86.8125C112.037 85.2513 112.28 85.4865 112.639 84.0429C113.115 82.2358 113.115 79.8405 111.931 78.8781C111.572 79.4769 111.456 80.5569 111.223 81.2841C110.864 82.2465 110.515 82.7277 110.155 83.3265H110.145ZM165.715 89.0902C164.647 88.8549 164.531 84.7594 164.404 83.9253C163.093 84.6525 162.618 87.0478 162.744 89.0902C162.861 90.6514 163.22 90.6514 162.628 92.095C162.512 92.6938 162.036 94.1374 161.561 94.3833C161.085 92.9398 161.677 90.6621 161.804 89.0902C160.26 89.689 159.309 91.4962 158.95 93.5386C158.717 94.9822 159.066 95.2174 158.241 96.3081C157.649 97.0246 157.406 97.6341 156.698 98.2329C156.465 96.3081 157.29 94.501 157.29 92.7045C154.087 93.9022 153.611 99.6765 151.349 101.719L158.95 101.954C160.852 101.719 162.871 100.393 163.58 98.8317C161.444 98.8317 160.26 99.5482 157.882 98.9494C158.115 98.4682 158.474 98.2329 158.833 97.8694C159.901 96.907 164.647 98.1153 166.909 95.8269C167.501 95.3457 168.336 94.2657 168.696 93.5386C166.317 94.2657 165.969 94.7362 162.998 94.6186C163.833 91.9774 164.785 92.9398 168.336 91.1326C170.472 90.1702 171.539 88.9725 172.142 86.3206C171.782 86.5559 171.434 86.8018 171.074 87.1654C170.007 87.8818 168.463 88.7266 167.036 88.8442C167.269 88.363 167.396 87.8818 167.628 87.4006C167.988 86.5559 169.055 86.6842 171.423 85.1123C173.442 83.7863 174.277 83.1875 174.626 80.0651C173.791 80.5462 173.791 81.1451 172.131 82.1075C171.296 82.5887 169.869 83.3051 168.801 83.3051C168.093 82.3427 167.491 80.1827 167.258 78.7391C166.899 78.9743 167.142 78.7391 166.782 79.1027C165.947 80.3003 165.947 82.471 166.307 83.9146C166.539 85.2406 166.899 85.2406 166.539 86.6842C166.423 87.4006 166.18 88.7266 165.704 89.0902H165.715ZM130.324 103.152C127.238 104.478 125.219 104.114 124.151 104.595C124.743 104.959 126.646 105.558 127.238 105.793C131.276 106.755 132.819 103.986 134.362 104.232C134.595 104.349 136.741 105.675 137.089 105.911C136.022 106.627 133.168 105.911 132.576 105.911L132.1 106.991C133.887 107.835 134.595 108.67 137.681 107.836C138.041 107.718 139.108 107.237 139.457 107.237C139.806 107.237 141.952 108.081 143.136 108.199C145.155 108.317 145.631 107.6 146.814 107.119L146.339 105.921C145.155 106.039 143.02 106.638 141.825 105.921C142.185 105.686 144.32 104.36 144.679 104.243C146.466 103.879 148.125 108.092 154.774 104.488C152.279 104.125 150.736 104.125 148.601 103.163C148.833 101.12 150.028 97.3989 150.028 96.3081C148.368 97.5058 146.466 99.6765 145.165 101.12C144.33 101.837 143.622 102.681 142.671 103.408C142.195 103.772 140.292 105.333 139.584 105.333C137.089 105.333 130.557 97.2812 128.897 96.3188C129.013 98.3613 130.208 100.885 130.324 103.173V103.152Z" fill="white"/>
<path d="M200.984 43.0439L197.208 50.3239V54.2119H194.968V50.3239L191.176 43.0439H193.704L196.104 48.1479L198.488 43.0439H200.984ZM201.7 49.7479C201.7 48.8519 201.876 48.0572 202.228 47.3639C202.591 46.6706 203.076 46.1372 203.684 45.7639C204.303 45.3906 204.991 45.2039 205.748 45.2039C206.409 45.2039 206.985 45.3372 207.476 45.6039C207.977 45.8706 208.377 46.2066 208.676 46.6119V45.3479H210.932V54.2119H208.676V52.9159C208.388 53.3319 207.988 53.6786 207.476 53.9559C206.975 54.2226 206.393 54.3559 205.732 54.3559C204.985 54.3559 204.303 54.1639 203.684 53.7799C203.076 53.3959 202.591 52.8572 202.228 52.1639C201.876 51.4599 201.7 50.6546 201.7 49.7479ZM208.676 49.7799C208.676 49.2359 208.569 48.7719 208.356 48.3879C208.143 47.9932 207.855 47.6946 207.492 47.4919C207.129 47.2786 206.74 47.1719 206.324 47.1719C205.908 47.1719 205.524 47.2732 205.172 47.4759C204.82 47.6786 204.532 47.9772 204.308 48.3719C204.095 48.7559 203.988 49.2146 203.988 49.7479C203.988 50.2812 204.095 50.7506 204.308 51.1559C204.532 51.5506 204.82 51.8546 205.172 52.0679C205.535 52.2812 205.919 52.3879 206.324 52.3879C206.74 52.3879 207.129 52.2866 207.492 52.0839C207.855 51.8706 208.143 51.5719 208.356 51.1879C208.569 50.7932 208.676 50.3239 208.676 49.7799ZM221.6 45.3479L216.112 58.4039H213.728L215.648 53.9879L212.096 45.3479H214.608L216.896 51.5399L219.216 45.3479H221.6ZM222.231 49.7479C222.231 48.8519 222.407 48.0572 222.759 47.3639C223.122 46.6706 223.607 46.1372 224.215 45.7639C224.834 45.3906 225.522 45.2039 226.279 45.2039C226.94 45.2039 227.516 45.3372 228.007 45.6039C228.508 45.8706 228.908 46.2066 229.207 46.6119V45.3479H231.463V54.2119H229.207V52.9159C228.919 53.3319 228.519 53.6786 228.007 53.9559C227.506 54.2226 226.924 54.3559 226.263 54.3559C225.516 54.3559 224.834 54.1639 224.215 53.7799C223.607 53.3959 223.122 52.8572 222.759 52.1639C222.407 51.4599 222.231 50.6546 222.231 49.7479ZM229.207 49.7799C229.207 49.2359 229.1 48.7719 228.887 48.3879C228.674 47.9932 228.386 47.6946 228.023 47.4919C227.66 47.2786 227.271 47.1719 226.855 47.1719C226.439 47.1719 226.055 47.2732 225.703 47.4759C225.351 47.6786 225.063 47.9772 224.839 48.3719C224.626 48.7559 224.519 49.2146 224.519 49.7479C224.519 50.2812 224.626 50.7506 224.839 51.1559C225.063 51.5506 225.351 51.8546 225.703 52.0679C226.066 52.2812 226.45 52.3879 226.855 52.3879C227.271 52.3879 227.66 52.2866 228.023 52.0839C228.386 51.8706 228.674 51.5719 228.887 51.1879C229.1 50.7932 229.207 50.3239 229.207 49.7799ZM237.043 54.3559C236.318 54.3559 235.667 54.2279 235.091 53.9719C234.515 53.7052 234.056 53.3479 233.715 52.8999C233.384 52.4519 233.203 51.9559 233.171 51.4119H235.427C235.47 51.7532 235.635 52.0359 235.923 52.2599C236.222 52.4839 236.59 52.5959 237.027 52.5959C237.454 52.5959 237.784 52.5106 238.019 52.3399C238.264 52.1692 238.387 51.9506 238.387 51.6839C238.387 51.3959 238.238 51.1826 237.939 51.0439C237.651 50.8946 237.187 50.7346 236.547 50.5639C235.886 50.4039 235.342 50.2386 234.915 50.0679C234.499 49.8972 234.136 49.6359 233.827 49.2839C233.528 48.9319 233.379 48.4572 233.379 47.8599C233.379 47.3692 233.518 46.9212 233.795 46.5159C234.083 46.1106 234.488 45.7906 235.011 45.5559C235.544 45.3212 236.168 45.2039 236.883 45.2039C237.939 45.2039 238.782 45.4706 239.411 46.0039C240.04 46.5266 240.387 47.2359 240.451 48.1319H238.307C238.275 47.7799 238.126 47.5026 237.859 47.2999C237.603 47.0866 237.256 46.9799 236.819 46.9799C236.414 46.9799 236.099 47.0546 235.875 47.2039C235.662 47.3532 235.555 47.5612 235.555 47.8279C235.555 48.1266 235.704 48.3559 236.003 48.5159C236.302 48.6652 236.766 48.8199 237.395 48.9799C238.035 49.1399 238.563 49.3052 238.979 49.4759C239.395 49.6466 239.752 49.9132 240.051 50.2759C240.36 50.6279 240.52 51.0972 240.531 51.6839C240.531 52.1959 240.387 52.6546 240.099 53.0599C239.822 53.4652 239.416 53.7852 238.883 54.0199C238.36 54.2439 237.747 54.3559 237.043 54.3559ZM241.794 49.7479C241.794 48.8519 241.97 48.0572 242.322 47.3639C242.684 46.6706 243.17 46.1372 243.778 45.7639C244.396 45.3906 245.084 45.2039 245.842 45.2039C246.503 45.2039 247.079 45.3372 247.57 45.6039C248.071 45.8706 248.471 46.2066 248.77 46.6119V45.3479H251.026V54.2119H248.77V52.9159C248.482 53.3319 248.082 53.6786 247.57 53.9559C247.068 54.2226 246.487 54.3559 245.826 54.3559C245.079 54.3559 244.396 54.1639 243.778 53.7799C243.17 53.3959 242.684 52.8572 242.322 52.1639C241.97 51.4599 241.794 50.6546 241.794 49.7479ZM248.77 49.7799C248.77 49.2359 248.663 48.7719 248.45 48.3879C248.236 47.9932 247.948 47.6946 247.586 47.4919C247.223 47.2786 246.834 47.1719 246.418 47.1719C246.002 47.1719 245.618 47.2732 245.266 47.4759C244.914 47.6786 244.626 47.9772 244.402 48.3719C244.188 48.7559 244.082 49.2146 244.082 49.7479C244.082 50.2812 244.188 50.7506 244.402 51.1559C244.626 51.5506 244.914 51.8546 245.266 52.0679C245.628 52.2812 246.012 52.3879 246.418 52.3879C246.834 52.3879 247.223 52.2866 247.586 52.0839C247.948 51.8706 248.236 51.5719 248.45 51.1879C248.663 50.7932 248.77 50.3239 248.77 49.7799ZM258.125 45.2199C259.181 45.2199 260.035 45.5559 260.685 46.2279C261.336 46.8892 261.661 47.8172 261.661 49.0119V54.2119H259.421V49.3159C259.421 48.6119 259.245 48.0732 258.893 47.6999C258.541 47.3159 258.061 47.1239 257.453 47.1239C256.835 47.1239 256.344 47.3159 255.981 47.6999C255.629 48.0732 255.453 48.6119 255.453 49.3159V54.2119H253.213V45.3479H255.453V46.4519C255.752 46.0679 256.131 45.7692 256.589 45.5559C257.059 45.3319 257.571 45.2199 258.125 45.2199ZM198.408 78.2119L194.344 73.2359V78.2119H192.104V67.0439H194.344V72.0519L198.408 67.0439H201.112L196.504 72.5799L201.24 78.2119H198.408ZM202.137 73.7479C202.137 72.8519 202.313 72.0572 202.665 71.3639C203.028 70.6706 203.513 70.1372 204.121 69.7639C204.74 69.3906 205.428 69.2039 206.185 69.2039C206.847 69.2039 207.423 69.3372 207.913 69.6039C208.415 69.8706 208.815 70.2066 209.113 70.6119V69.3479H211.369V78.2119H209.113V76.9159C208.825 77.3319 208.425 77.6786 207.913 77.9559C207.412 78.2226 206.831 78.3559 206.169 78.3559C205.423 78.3559 204.74 78.1639 204.121 77.7799C203.513 77.3959 203.028 76.8572 202.665 76.1639C202.313 75.4599 202.137 74.6546 202.137 73.7479ZM209.113 73.7799C209.113 73.2359 209.007 72.7719 208.793 72.3879C208.58 71.9932 208.292 71.6946 207.929 71.4919C207.567 71.2786 207.177 71.1719 206.761 71.1719C206.345 71.1719 205.961 71.2732 205.609 71.4759C205.257 71.6786 204.969 71.9772 204.745 72.3719C204.532 72.7559 204.425 73.2146 204.425 73.7479C204.425 74.2812 204.532 74.7506 204.745 75.1559C204.969 75.5506 205.257 75.8546 205.609 76.0679C205.972 76.2812 206.356 76.3879 206.761 76.3879C207.177 76.3879 207.567 76.2866 207.929 76.0839C208.292 75.8706 208.58 75.5719 208.793 75.1879C209.007 74.7932 209.113 74.3239 209.113 73.7799ZM218.469 69.2199C219.525 69.2199 220.378 69.5559 221.029 70.2279C221.68 70.8892 222.005 71.8172 222.005 73.0119V78.2119H219.765V73.3159C219.765 72.6119 219.589 72.0732 219.237 71.6999C218.885 71.3159 218.405 71.1239 217.797 71.1239C217.178 71.1239 216.688 71.3159 216.325 71.6999C215.973 72.0732 215.797 72.6119 215.797 73.3159V78.2119H213.557V69.3479H215.797V70.4519C216.096 70.0679 216.474 69.7692 216.933 69.5559C217.402 69.3319 217.914 69.2199 218.469 69.2199ZM229.383 78.2119L226.375 74.4359V78.2119H224.135V66.3719H226.375V73.1079L229.351 69.3479H232.263L228.359 73.7959L232.295 78.2119H229.383ZM241.719 73.5879C241.719 73.9079 241.698 74.1959 241.655 74.4519H235.175C235.228 75.0919 235.452 75.5932 235.847 75.9559C236.242 76.3186 236.727 76.4999 237.303 76.4999C238.135 76.4999 238.727 76.1426 239.079 75.4279H241.495C241.239 76.2812 240.748 76.9852 240.023 77.5399C239.298 78.0839 238.407 78.3559 237.351 78.3559C236.498 78.3559 235.73 78.1692 235.047 77.7959C234.375 77.4119 233.847 76.8732 233.463 76.1799C233.09 75.4866 232.903 74.6866 232.903 73.7799C232.903 72.8626 233.09 72.0572 233.463 71.3639C233.836 70.6706 234.359 70.1372 235.031 69.7639C235.703 69.3906 236.476 69.2039 237.351 69.2039C238.194 69.2039 238.946 69.3852 239.607 69.7479C240.279 70.1106 240.796 70.6279 241.159 71.2999C241.532 71.9612 241.719 72.7239 241.719 73.5879ZM239.399 72.9479C239.388 72.3719 239.18 71.9132 238.775 71.5719C238.37 71.2199 237.874 71.0439 237.287 71.0439C236.732 71.0439 236.263 71.2146 235.879 71.5559C235.506 71.8866 235.276 72.3506 235.191 72.9479H239.399ZM245.594 70.7239C245.882 70.2546 246.255 69.8866 246.714 69.6199C247.183 69.3532 247.717 69.2199 248.314 69.2199V71.5719H247.722C247.018 71.5719 246.485 71.7372 246.122 72.0679C245.77 72.3986 245.594 72.9746 245.594 73.7959V78.2119H243.354V69.3479H245.594V70.7239ZM194.344 91.0439V102.212H192.104V91.0439H194.344ZM201.469 93.2199C202.525 93.2199 203.378 93.5559 204.029 94.2279C204.68 94.8892 205.005 95.8172 205.005 97.0119V102.212H202.765V97.3159C202.765 96.6119 202.589 96.0732 202.237 95.6999C201.885 95.3159 201.405 95.1239 200.797 95.1239C200.178 95.1239 199.688 95.3159 199.325 95.6999C198.973 96.0732 198.797 96.6119 198.797 97.3159V102.212H196.557V93.3479H198.797V94.4519C199.096 94.0679 199.474 93.7692 199.933 93.5559C200.402 93.3319 200.914 93.2199 201.469 93.2199ZM206.559 97.7479C206.559 96.8519 206.735 96.0572 207.087 95.3639C207.45 94.6706 207.941 94.1372 208.559 93.7639C209.178 93.3906 209.866 93.2039 210.623 93.2039C211.199 93.2039 211.749 93.3319 212.271 93.5879C212.794 93.8332 213.21 94.1639 213.519 94.5799V90.3719H215.791V102.212H213.519V100.9C213.242 101.337 212.853 101.689 212.351 101.956C211.85 102.223 211.269 102.356 210.607 102.356C209.861 102.356 209.178 102.164 208.559 101.78C207.941 101.396 207.45 100.857 207.087 100.164C206.735 99.4599 206.559 98.6546 206.559 97.7479ZM213.535 97.7799C213.535 97.2359 213.429 96.7719 213.215 96.3879C213.002 95.9932 212.714 95.6946 212.351 95.4919C211.989 95.2786 211.599 95.1719 211.183 95.1719C210.767 95.1719 210.383 95.2732 210.031 95.4759C209.679 95.6786 209.391 95.9772 209.167 96.3719C208.954 96.7559 208.847 97.2146 208.847 97.7479C208.847 98.2812 208.954 98.7506 209.167 99.1559C209.391 99.5506 209.679 99.8546 210.031 100.068C210.394 100.281 210.778 100.388 211.183 100.388C211.599 100.388 211.989 100.287 212.351 100.084C212.714 99.8706 213.002 99.5719 213.215 99.1879C213.429 98.7932 213.535 98.3239 213.535 97.7799ZM221.915 102.356C221.062 102.356 220.294 102.169 219.611 101.796C218.928 101.412 218.39 100.873 217.995 100.18C217.611 99.4866 217.419 98.6866 217.419 97.7799C217.419 96.8732 217.616 96.0732 218.011 95.3799C218.416 94.6866 218.966 94.1532 219.659 93.7799C220.352 93.3959 221.126 93.2039 221.979 93.2039C222.832 93.2039 223.606 93.3959 224.299 93.7799C224.992 94.1532 225.536 94.6866 225.931 95.3799C226.336 96.0732 226.539 96.8732 226.539 97.7799C226.539 98.6866 226.331 99.4866 225.915 100.18C225.51 100.873 224.955 101.412 224.251 101.796C223.558 102.169 222.779 102.356 221.915 102.356ZM221.915 100.404C222.32 100.404 222.699 100.308 223.051 100.116C223.414 99.9132 223.702 99.6146 223.915 99.2199C224.128 98.8252 224.235 98.3452 224.235 97.7799C224.235 96.9372 224.011 96.2919 223.563 95.8439C223.126 95.3852 222.587 95.1559 221.947 95.1559C221.307 95.1559 220.768 95.3852 220.331 95.8439C219.904 96.2919 219.691 96.9372 219.691 97.7799C219.691 98.6226 219.899 99.2732 220.315 99.7319C220.742 100.18 221.275 100.404 221.915 100.404ZM233.094 93.2199C234.15 93.2199 235.003 93.5559 235.654 94.2279C236.305 94.8892 236.63 95.8172 236.63 97.0119V102.212H234.39V97.3159C234.39 96.6119 234.214 96.0732 233.862 95.6999C233.51 95.3159 233.03 95.1239 232.422 95.1239C231.803 95.1239 231.313 95.3159 230.95 95.6999C230.598 96.0732 230.422 96.6119 230.422 97.3159V102.212H228.182V93.3479H230.422V94.4519C230.721 94.0679 231.099 93.7692 231.558 93.5559C232.027 93.3319 232.539 93.2199 233.094 93.2199ZM247 97.5879C247 97.9079 246.979 98.1959 246.936 98.4519H240.456C240.51 99.0919 240.734 99.5932 241.128 99.9559C241.523 100.319 242.008 100.5 242.584 100.5C243.416 100.5 244.008 100.143 244.36 99.4279H246.776C246.52 100.281 246.03 100.985 245.304 101.54C244.579 102.084 243.688 102.356 242.632 102.356C241.779 102.356 241.011 102.169 240.328 101.796C239.656 101.412 239.128 100.873 238.744 100.18C238.371 99.4866 238.184 98.6866 238.184 97.7799C238.184 96.8626 238.371 96.0572 238.744 95.3639C239.118 94.6706 239.64 94.1372 240.312 93.7639C240.984 93.3906 241.758 93.2039 242.632 93.2039C243.475 93.2039 244.227 93.3852 244.888 93.7479C245.56 94.1106 246.078 94.6279 246.44 95.2999C246.814 95.9612 247 96.7239 247 97.5879ZM244.68 96.9479C244.67 96.3719 244.462 95.9132 244.056 95.5719C243.651 95.2199 243.155 95.0439 242.568 95.0439C242.014 95.0439 241.544 95.2146 241.16 95.5559C240.787 95.8866 240.558 96.3506 240.472 96.9479H244.68ZM252.027 102.356C251.302 102.356 250.651 102.228 250.075 101.972C249.499 101.705 249.041 101.348 248.699 100.9C248.369 100.452 248.187 99.9559 248.155 99.4119H250.411C250.454 99.7532 250.619 100.036 250.907 100.26C251.206 100.484 251.574 100.596 252.011 100.596C252.438 100.596 252.769 100.511 253.003 100.34C253.249 100.169 253.371 99.9506 253.371 99.6839C253.371 99.3959 253.222 99.1826 252.923 99.0439C252.635 98.8946 252.171 98.7346 251.531 98.5639C250.87 98.4039 250.326 98.2386 249.899 98.0679C249.483 97.8972 249.121 97.6359 248.811 97.2839C248.513 96.9319 248.363 96.4572 248.363 95.8599C248.363 95.3692 248.502 94.9212 248.779 94.5159C249.067 94.1106 249.473 93.7906 249.995 93.5559C250.529 93.3212 251.153 93.2039 251.867 93.2039C252.923 93.2039 253.766 93.4706 254.395 94.0039C255.025 94.5266 255.371 95.2359 255.435 96.1319H253.291C253.259 95.7799 253.11 95.5026 252.843 95.2999C252.587 95.0866 252.241 94.9799 251.803 94.9799C251.398 94.9799 251.083 95.0546 250.859 95.2039C250.646 95.3532 250.539 95.5612 250.539 95.8279C250.539 96.1266 250.689 96.3559 250.987 96.5159C251.286 96.6652 251.75 96.8199 252.379 96.9799C253.019 97.1399 253.547 97.3052 253.963 97.4759C254.379 97.6466 254.737 97.9132 255.035 98.2759C255.345 98.6279 255.505 99.0972 255.515 99.6839C255.515 100.196 255.371 100.655 255.083 101.06C254.806 101.465 254.401 101.785 253.867 102.02C253.345 102.244 252.731 102.356 252.027 102.356ZM258.49 92.2919C258.095 92.2919 257.765 92.1692 257.498 91.9239C257.242 91.6679 257.114 91.3532 257.114 90.9799C257.114 90.6066 257.242 90.2972 257.498 90.0519C257.765 89.7959 258.095 89.6679 258.49 89.6679C258.885 89.6679 259.21 89.7959 259.466 90.0519C259.733 90.2972 259.866 90.6066 259.866 90.9799C259.866 91.3532 259.733 91.6679 259.466 91.9239C259.21 92.1692 258.885 92.2919 258.49 92.2919ZM259.594 93.3479V102.212H257.354V93.3479H259.594ZM261.231 97.7479C261.231 96.8519 261.407 96.0572 261.759 95.3639C262.122 94.6706 262.607 94.1372 263.215 93.7639C263.834 93.3906 264.522 93.2039 265.279 93.2039C265.94 93.2039 266.516 93.3372 267.007 93.6039C267.508 93.8706 267.908 94.2066 268.207 94.6119V93.3479H270.463V102.212H268.207V100.916C267.919 101.332 267.519 101.679 267.007 101.956C266.506 102.223 265.924 102.356 265.263 102.356C264.516 102.356 263.834 102.164 263.215 101.78C262.607 101.396 262.122 100.857 261.759 100.164C261.407 99.4599 261.231 98.6546 261.231 97.7479ZM268.207 97.7799C268.207 97.2359 268.1 96.7719 267.887 96.3879C267.674 95.9932 267.386 95.6946 267.023 95.4919C266.66 95.2786 266.271 95.1719 265.855 95.1719C265.439 95.1719 265.055 95.2732 264.703 95.4759C264.351 95.6786 264.063 95.9772 263.839 96.3719C263.626 96.7559 263.519 97.2146 263.519 97.7479C263.519 98.2812 263.626 98.7506 263.839 99.1559C264.063 99.5506 264.351 99.8546 264.703 100.068C265.066 100.281 265.45 100.388 265.855 100.388C266.271 100.388 266.66 100.287 267.023 100.084C267.386 99.8706 267.674 99.5719 267.887 99.1879C268.1 98.7932 268.207 98.3239 268.207 97.7799Z" fill="white"/>
<path d="M-0.3323 31.7549L-0.164435 31.934L-0.163347 31.933L-0.15956 31.9296L-0.144077 31.9154C-0.130278 31.9029 -0.109576 31.8841 -0.0822729 31.8595C-0.0276647 31.8103 0.0533425 31.738 0.158337 31.6457C0.368342 31.4612 0.674221 31.1972 1.05669 30.8802C1.8219 30.246 2.89235 29.4008 4.11396 28.5561C5.33631 27.711 6.70538 26.8695 8.06817 26.2402C9.43461 25.6092 10.7749 25.2008 11.9451 25.2008C14.2757 25.2008 16.0508 26.8183 17.916 28.5348L17.9527 28.5685C19.7704 30.2414 21.6807 31.9994 24.2226 31.9994C26.7645 31.9994 28.6747 30.2414 30.4924 28.5685L30.5291 28.5348C32.3943 26.8183 34.1694 25.2008 36.5 25.2008C38.8306 25.2008 40.6057 26.8183 42.4709 28.5348L42.5076 28.5686C44.3253 30.2414 46.2355 31.9994 48.7774 31.9994C51.3193 31.9994 53.2296 30.2414 55.0473 28.5686L55.084 28.5348C56.9492 26.8183 58.7243 25.2008 61.0549 25.2008C62.2251 25.2008 63.5654 25.6092 64.9318 26.2402C66.2946 26.8695 67.6637 27.711 68.8861 28.5561C70.1077 29.4008 71.1781 30.246 71.9433 30.8802C72.3258 31.1972 72.6317 31.4612 72.8417 31.6457C72.9467 31.738 73.0277 31.8103 73.0823 31.8595C73.1096 31.8841 73.1303 31.9029 73.1441 31.9154L73.1596 31.9296L73.1642 31.9339L73.3323 31.7549L73.4845 31.5925C73.5001 31.5757 73.5 31.5757 73.5 31.5757L73.4986 31.5744L73.4943 31.5704L73.4778 31.5554C73.4634 31.5423 73.442 31.5229 73.414 31.4977C73.358 31.4472 73.2755 31.3735 73.169 31.2799C72.9558 31.0926 72.6463 30.8255 72.2598 30.5051C71.487 29.8646 70.4049 29.0102 69.1683 28.1552C67.9325 27.3007 66.5378 26.4425 65.1402 25.7971C63.7462 25.1533 62.3295 24.7119 61.0549 24.7119C58.513 24.7119 56.6027 26.4699 54.785 28.1428L54.7483 28.1765C52.8831 29.893 51.108 31.5105 48.7774 31.5105C46.4468 31.5105 44.6718 29.893 42.8066 28.1765L42.7699 28.1428C40.9522 26.4699 39.0419 24.7119 36.5 24.7119C33.9581 24.7119 32.0478 26.4699 30.2301 28.1428L30.1934 28.1765C28.3282 29.893 26.5532 31.5105 24.2226 31.5105C21.892 31.5105 20.1169 29.893 18.2517 28.1765L18.215 28.1427C16.3973 26.4699 14.487 24.7119 11.9451 24.7119C10.6705 24.7119 9.25379 25.1533 7.85981 25.7971C6.46218 26.4425 5.06749 27.3007 3.83169 28.1552C2.59513 29.0102 1.51302 29.8646 0.740211 30.5051C0.35367 30.8255 0.0441744 31.0926 -0.168944 31.2799C-0.275511 31.3735 -0.358002 31.4472 -0.414001 31.4977C-0.442002 31.5229 -0.463381 31.5423 -0.477838 31.5554L-0.494293 31.5704L-0.499684 31.5754C-0.499684 31.5754 -0.500139 31.5758 -0.3323 31.7549Z" fill="#FFC6DD"/>
<path d="M-0.3323 43.9926L-0.164435 44.1717L-0.163347 44.1707L-0.15956 44.1672L-0.144077 44.1531C-0.130278 44.1405 -0.109576 44.1218 -0.0822729 44.0972C-0.0276647 44.048 0.0533425 43.9756 0.158337 43.8834C0.368342 43.6989 0.674221 43.4348 1.05669 43.1178C1.8219 42.4836 2.89235 41.6385 4.11396 40.7938C5.33631 39.9486 6.70538 39.1072 8.06817 38.4779C9.43461 37.8469 10.7749 37.4385 11.9451 37.4385C14.2757 37.4385 16.0508 39.056 17.916 40.7724L17.9527 40.8062C19.7704 42.479 21.6807 44.2371 24.2226 44.2371C26.7645 44.2371 28.6747 42.479 30.4924 40.8062L30.5291 40.7724C32.3943 39.056 34.1694 37.4385 36.5 37.4385C38.8306 37.4385 40.6057 39.056 42.4709 40.7724L42.5076 40.8062C44.3253 42.479 46.2355 44.2371 48.7774 44.2371C51.3193 44.2371 53.2296 42.479 55.0473 40.8062L55.084 40.7724C56.9492 39.056 58.7243 37.4385 61.0549 37.4385C62.2251 37.4385 63.5654 37.8469 64.9318 38.4779C66.2946 39.1072 67.6637 39.9486 68.8861 40.7938C70.1077 41.6385 71.1781 42.4836 71.9433 43.1178C72.3258 43.4348 72.6317 43.6989 72.8417 43.8834C72.9467 43.9756 73.0277 44.048 73.0823 44.0972C73.1096 44.1218 73.1303 44.1405 73.1441 44.1531L73.1596 44.1672L73.1642 44.1715L73.3323 43.9926C73.5001 43.8135 73.5 43.8133 73.5 43.8133L73.4986 43.812L73.4943 43.8081L73.4778 43.7931C73.4634 43.7799 73.442 43.7605 73.414 43.7353C73.358 43.6849 73.2755 43.6112 73.169 43.5176C72.9558 43.3303 72.6463 43.0632 72.2598 42.7428C71.487 42.1023 70.4049 41.2478 69.1683 40.3928C67.9325 39.5384 66.5378 38.6801 65.1402 38.0347C63.7462 37.391 62.3295 36.9496 61.0549 36.9496C58.513 36.9496 56.6027 38.7076 54.785 40.3804L54.7483 40.4142C52.8831 42.1306 51.108 43.7482 48.7774 43.7482C46.4468 43.7482 44.6718 42.1306 42.8066 40.4142L42.7699 40.3804C40.9522 38.7076 39.0419 36.9496 36.5 36.9496C33.9581 36.9496 32.0478 38.7076 30.2301 40.3804L30.1934 40.4142C28.3282 42.1306 26.5532 43.7482 24.2226 43.7482C21.892 43.7482 20.1169 42.1306 18.2517 40.4142L18.215 40.3804C16.3973 38.7076 14.487 36.9496 11.9451 36.9496C10.6705 36.9496 9.25379 37.391 7.85981 38.0347C6.46218 38.6801 5.06749 39.5384 3.83169 40.3928C2.59513 41.2478 1.51302 42.1023 0.740211 42.7428C0.35367 43.0632 0.0441744 43.3303 -0.168944 43.5176C-0.275511 43.6112 -0.358002 43.6849 -0.414001 43.7353C-0.442002 43.7605 -0.463381 43.7799 -0.477838 43.7931L-0.494293 43.8081L-0.498556 43.812L-0.499684 43.8131C-0.499684 43.8131 -0.500139 43.8135 -0.3323 43.9926Z" fill="#FFC6DD"/>
<path d="M-0.164435 56.4093L-0.3323 56.2302C-0.500139 56.0511 -0.499996 56.0509 -0.499996 56.0509L-0.498556 56.0496L-0.494293 56.0457L-0.477838 56.0307C-0.463381 56.0175 -0.442002 55.9981 -0.414001 55.9729C-0.358002 55.9225 -0.275511 55.8488 -0.168944 55.7552C0.0441744 55.5679 0.35367 55.3008 0.740211 54.9804C1.51302 54.3399 2.59513 53.4854 3.83169 52.6304C5.06749 51.7759 6.46218 50.9177 7.85981 50.2723C9.25379 49.6286 10.6705 49.1872 11.9451 49.1872C14.487 49.1872 16.3973 50.9452 18.215 52.618L18.2517 52.6518C20.1169 54.3682 21.892 55.9857 24.2226 55.9857C26.5532 55.9857 28.3282 54.3682 30.1934 52.6518L30.2301 52.618C32.0478 50.9452 33.9581 49.1872 36.5 49.1872C39.0419 49.1872 40.9522 50.9452 42.7699 52.618L42.8066 52.6518C44.6718 54.3682 46.4468 55.9857 48.7774 55.9857C51.108 55.9857 52.8831 54.3682 54.7483 52.6518L54.785 52.618C56.6027 50.9452 58.513 49.1872 61.0549 49.1872C62.3295 49.1872 63.7462 49.6286 65.1402 50.2723C66.5378 50.9177 67.9325 51.7759 69.1683 52.6304C70.4049 53.4854 71.487 54.3399 72.2598 54.9804C72.6463 55.3008 72.9558 55.5679 73.169 55.7552C73.2755 55.8488 73.358 55.9225 73.414 55.9729C73.442 55.9981 73.4634 56.0175 73.4778 56.0307L73.4943 56.0457L73.4997 56.0506C73.4997 56.0506 73.5001 56.0511 73.3323 56.2302L73.1644 56.4093L73.1634 56.4083L73.1596 56.4048L73.1441 56.3907L73.134 56.3815L73.1139 56.3633C73.1046 56.3549 73.0941 56.3454 73.0823 56.3348C73.0277 56.2856 72.9467 56.2132 72.8417 56.121C72.6317 55.9364 72.3258 55.6724 71.9433 55.3554C71.1781 54.7212 70.1077 53.876 68.8861 53.0314C67.6637 52.1862 66.2946 51.3448 64.9318 50.7155C63.5654 50.0845 62.2251 49.6761 61.0549 49.6761C58.7243 49.6761 56.9492 51.2936 55.084 53.01L55.0473 53.0438C53.2296 54.7166 51.3193 56.4746 48.7774 56.4746C46.2355 56.4746 44.3253 54.7166 42.5076 53.0438L42.4709 53.01C40.6057 51.2936 38.8306 49.6761 36.5 49.6761C34.1694 49.6761 32.3943 51.2936 30.5291 53.01L30.4924 53.0438C28.6747 54.7166 26.7645 56.4746 24.2226 56.4746C21.6807 56.4746 19.7704 54.7166 17.9527 53.0438L17.916 53.01C16.0508 51.2936 14.2757 49.6761 11.9451 49.6761C10.7749 49.6761 9.43461 50.0845 8.06817 50.7155C6.70538 51.3448 5.33631 52.1862 4.11396 53.0314C2.89235 53.876 1.8219 54.7212 1.05669 55.3554C0.674221 55.6724 0.368342 55.9364 0.158337 56.121C0.0533425 56.2132 -0.0276647 56.2856 -0.0822729 56.3348C-0.109576 56.3593 -0.130278 56.3781 -0.144077 56.3907L-0.15956 56.4048L-0.164435 56.4093Z" fill="#FFC6DD"/>
<path d="M-0.3323 68.4675L-0.164435 68.6466L-0.15956 68.6421L-0.144077 68.628C-0.130278 68.6154 -0.109576 68.5966 -0.0822729 68.572C-0.0276647 68.5229 0.0533425 68.4505 0.158337 68.3582C0.368342 68.1737 0.674221 67.9097 1.05669 67.5927C1.8219 66.9585 2.89235 66.1133 4.11396 65.2687C5.33631 64.4235 6.70538 63.5821 8.06817 62.9527C9.43461 62.3217 10.7749 61.9133 11.9451 61.9133C14.2757 61.9133 16.0508 63.5309 17.916 65.2473L17.9527 65.2811C19.7704 66.9539 21.6807 68.7119 24.2226 68.7119C26.7645 68.7119 28.6747 66.9539 30.4924 65.2811L30.5291 65.2473C32.3943 63.5309 34.1694 61.9133 36.5 61.9133C38.8306 61.9133 40.6057 63.5309 42.4709 65.2473L42.5076 65.2811C44.3253 66.9539 46.2355 68.7119 48.7774 68.7119C51.3193 68.7119 53.2296 66.9539 55.0473 65.2811L55.084 65.2473C56.9492 63.5309 58.7243 61.9133 61.0549 61.9133C62.2251 61.9133 63.5654 62.3217 64.9318 62.9527C66.2946 63.5821 67.6637 64.4235 68.8861 65.2687C70.1077 66.1133 71.1781 66.9585 71.9433 67.5927C72.3258 67.9097 72.6317 68.1737 72.8417 68.3582C72.9467 68.4505 73.0277 68.5229 73.0823 68.572C73.1096 68.5966 73.1303 68.6154 73.1441 68.628L73.1596 68.6421L73.1634 68.6456L73.1642 68.6464L73.3323 68.4675C73.5001 68.2883 73.5 68.2882 73.5 68.2882L73.4986 68.2869L73.4943 68.283L73.4778 68.268C73.4634 68.2548 73.442 68.2354 73.414 68.2102C73.358 68.1598 73.2755 68.0861 73.169 67.9924C72.9558 67.8052 72.6463 67.5381 72.2598 67.2177C71.487 66.5772 70.4049 65.7227 69.1683 64.8677C67.9325 64.0132 66.5378 63.155 65.1402 62.5096C63.7462 61.8659 62.3295 61.4244 61.0549 61.4244C58.513 61.4244 56.6027 63.1825 54.785 64.8553L54.7483 64.889C52.8831 66.6055 51.108 68.223 48.7774 68.223C46.4468 68.223 44.6718 66.6055 42.8066 64.889L42.7699 64.8553C40.9522 63.1825 39.0419 61.4244 36.5 61.4244C33.9581 61.4244 32.0478 63.1825 30.2301 64.8553L30.1934 64.889C28.3282 66.6055 26.5532 68.223 24.2226 68.223C21.892 68.223 20.1169 66.6055 18.2517 64.889L18.215 64.8553C16.3973 63.1825 14.487 61.4244 11.9451 61.4244C10.6705 61.4244 9.25379 61.8659 7.85981 62.5096C6.46218 63.155 5.06749 64.0132 3.83169 64.8677C2.59513 65.7227 1.51302 66.5772 0.740211 67.2177C0.35367 67.5381 0.0441744 67.8052 -0.168944 67.9924C-0.275511 68.0861 -0.358002 68.1598 -0.414001 68.2102C-0.442002 68.2354 -0.463381 68.2548 -0.477838 68.268L-0.494293 68.283L-0.498556 68.2869L-0.499684 68.2879C-0.499684 68.2879 -0.500139 68.2883 -0.3323 68.4675Z" fill="#FFC6DD"/>
<path fill-rule="evenodd" clip-rule="evenodd" d="M331.5 -9.03078C321.405 -9.03078 313.222 -2.36282 313.222 5.86252C313.222 14.0879 321.405 20.7558 331.5 20.7558C341.595 20.7558 349.778 14.0879 349.778 5.86252C349.778 -2.36282 341.595 -9.03078 331.5 -9.03078ZM314.017 5.86252C314.017 -2.0052 321.844 -8.38325 331.5 -8.38325C341.156 -8.38325 348.983 -2.0052 348.983 5.86252C348.983 13.7302 341.156 20.1083 331.5 20.1083C321.844 20.1083 314.017 13.7302 314.017 5.86252Z" fill="#FFC6DD"/>
<path fill-rule="evenodd" clip-rule="evenodd" d="M307.262 5.86252C307.262 -5.045 318.113 -13.8873 331.5 -13.8873C344.886 -13.8873 355.738 -5.045 355.738 5.86252C355.738 16.77 344.886 25.6123 331.5 25.6123C318.113 25.6123 307.262 16.77 307.262 5.86252ZM331.5 -13.2398C318.552 -13.2398 308.056 -4.68737 308.056 5.86252C308.056 16.4124 318.552 24.9648 331.5 24.9648C344.448 24.9648 354.944 16.4124 354.944 5.86252C354.944 -4.68737 344.448 -13.2398 331.5 -13.2398Z" fill="#FFC6DD"/>
<path fill-rule="evenodd" clip-rule="evenodd" d="M301.301 5.86252C301.301 -7.72718 314.822 -18.7438 331.5 -18.7438C348.178 -18.7438 361.699 -7.72718 361.699 5.86252C361.699 19.4522 348.178 30.4689 331.5 30.4689C314.822 30.4689 301.301 19.4522 301.301 5.86252ZM331.5 -18.0963C315.261 -18.0963 302.096 -7.36955 302.096 5.86252C302.096 19.0946 315.261 29.8213 331.5 29.8213C347.739 29.8213 360.904 19.0946 360.904 5.86252C360.904 -7.36955 347.739 -18.0963 331.5 -18.0963Z" fill="#FFC6DD"/>
<path fill-rule="evenodd" clip-rule="evenodd" d="M295.341 5.86252C295.341 -10.4094 311.53 -23.6003 331.5 -23.6003C351.47 -23.6003 367.659 -10.4094 367.659 5.86252C367.659 22.1344 351.47 35.3254 331.5 35.3254C311.53 35.3254 295.341 22.1344 295.341 5.86252ZM331.5 -22.9528C311.969 -22.9528 296.136 -10.0517 296.136 5.86252C296.136 21.7768 311.969 34.6778 331.5 34.6778C351.031 34.6778 366.864 21.7768 366.864 5.86252C366.864 -10.0517 351.031 -22.9528 331.5 -22.9528Z" fill="#FFC6DD"/>
<path fill-rule="evenodd" clip-rule="evenodd" d="M289.381 5.86252C289.381 -13.0915 308.238 -28.4568 331.5 -28.4568C354.762 -28.4568 373.619 -13.0915 373.619 5.86252C373.619 24.8166 354.762 40.1819 331.5 40.1819C308.238 40.1819 289.381 24.8166 289.381 5.86252ZM331.5 -27.8093C308.677 -27.8093 290.175 -12.7339 290.175 5.86252C290.175 24.459 308.677 39.5343 331.5 39.5343C354.323 39.5343 372.825 24.459 372.825 5.86252C372.825 -12.7339 354.323 -27.8093 331.5 -27.8093Z" fill="#FFC6DD"/>
<path fill-rule="evenodd" clip-rule="evenodd" d="M283.421 5.86252C283.421 -15.7737 304.946 -33.3133 331.5 -33.3133C358.054 -33.3133 379.579 -15.7737 379.579 5.86252C379.579 27.4988 358.054 45.0384 331.5 45.0384C304.946 45.0384 283.421 27.4988 283.421 5.86252ZM331.5 -32.6658C305.385 -32.6658 284.215 -15.4161 284.215 5.86252C284.215 27.1411 305.385 44.3909 331.5 44.3909C357.615 44.3909 378.785 27.1411 378.785 5.86252C378.785 -15.4161 357.615 -32.6658 331.5 -32.6658Z" fill="#FFC6DD"/>
<path fill-rule="evenodd" clip-rule="evenodd" d="M277.46 5.86252C277.46 -18.4559 301.655 -38.1699 331.5 -38.1699C361.345 -38.1699 385.54 -18.4559 385.54 5.86252C385.54 30.1809 361.345 49.8949 331.5 49.8949C301.655 49.8949 277.46 30.1809 277.46 5.86252ZM331.5 -37.5223C302.094 -37.5223 278.255 -18.0983 278.255 5.86252C278.255 29.8233 302.094 49.2474 331.5 49.2474C360.906 49.2474 384.745 29.8233 384.745 5.86252C384.745 -18.0983 360.906 -37.5223 331.5 -37.5223Z" fill="#FFC6DD"/>
<path fill-rule="evenodd" clip-rule="evenodd" d="M271.5 5.86252C271.5 -21.1381 298.363 -43.0264 331.5 -43.0264C364.637 -43.0264 391.5 -21.1381 391.5 5.86252C391.5 32.8631 364.637 54.7514 331.5 54.7514C298.363 54.7514 271.5 32.8631 271.5 5.86252ZM331.5 -42.3788C298.802 -42.3788 272.295 -20.7804 272.295 5.86252C272.295 32.5055 298.802 54.1039 331.5 54.1039C364.198 54.1039 390.705 32.5055 390.705 5.86252C390.705 -20.7804 364.198 -42.3788 331.5 -42.3788Z" fill="#FFC6DD"/>
<path d="M293.468 100.197C293.468 101.018 292.803 101.683 291.984 101.683C291.164 101.683 290.5 101.018 290.5 100.197C290.5 99.3769 291.164 98.7119 291.984 98.7119C292.803 98.7119 293.468 99.3769 293.468 100.197Z" fill="#FFC6DD"/>
<path d="M302.371 100.197C302.371 101.018 301.707 101.683 300.887 101.683C300.068 101.683 299.403 101.018 299.403 100.197C299.403 99.3769 300.068 98.7119 300.887 98.7119C301.707 98.7119 302.371 99.3769 302.371 100.197Z" fill="#FFC6DD"/>
<path d="M311.274 100.197C311.274 101.018 310.61 101.683 309.79 101.683C308.971 101.683 308.306 101.018 308.306 100.197C308.306 99.3769 308.971 98.7119 309.79 98.7119C310.61 98.7119 311.274 99.3769 311.274 100.197Z" fill="#FFC6DD"/>
<path d="M320.177 100.197C320.177 101.018 319.513 101.683 318.694 101.683C317.874 101.683 317.21 101.018 317.21 100.197C317.21 99.3769 317.874 98.7119 318.694 98.7119C319.513 98.7119 320.177 99.3769 320.177 100.197Z" fill="#FFC6DD"/>
<path d="M329.081 100.197C329.081 101.018 328.416 101.683 327.597 101.683C326.777 101.683 326.113 101.018 326.113 100.197C326.113 99.3769 326.777 98.7119 327.597 98.7119C328.416 98.7119 329.081 99.3769 329.081 100.197Z" fill="#FFC6DD"/>
<path d="M337.984 100.197C337.984 101.018 337.32 101.683 336.5 101.683C335.68 101.683 335.016 101.018 335.016 100.197C335.016 99.3769 335.68 98.7119 336.5 98.7119C337.32 98.7119 337.984 99.3769 337.984 100.197Z" fill="#FFC6DD"/>
<path d="M346.887 100.197C346.887 101.018 346.223 101.683 345.403 101.683C344.584 101.683 343.919 101.018 343.919 100.197C343.919 99.3769 344.584 98.7119 345.403 98.7119C346.223 98.7119 346.887 99.3769 346.887 100.197Z" fill="#FFC6DD"/>
<path d="M355.79 100.197C355.79 101.018 355.126 101.683 354.306 101.683C353.487 101.683 352.823 101.018 352.823 100.197C352.823 99.3769 353.487 98.7119 354.306 98.7119C355.126 98.7119 355.79 99.3769 355.79 100.197Z" fill="#FFC6DD"/>
<path d="M364.694 100.197C364.694 101.018 364.029 101.683 363.21 101.683C362.39 101.683 361.726 101.018 361.726 100.197C361.726 99.3769 362.39 98.7119 363.21 98.7119C364.029 98.7119 364.694 99.3769 364.694 100.197Z" fill="#FFC6DD"/>
<path d="M373.597 100.197C373.597 101.018 372.932 101.683 372.113 101.683C371.293 101.683 370.629 101.018 370.629 100.197C370.629 99.3769 371.293 98.7119 372.113 98.7119C372.932 98.7119 373.597 99.3769 373.597 100.197Z" fill="#FFC6DD"/>
<path d="M382.5 100.197C382.5 101.018 381.836 101.683 381.016 101.683C380.197 101.683 379.532 101.018 379.532 100.197C379.532 99.3769 380.197 98.7119 381.016 98.7119C381.836 98.7119 382.5 99.3769 382.5 100.197Z" fill="#FFC6DD"/>
<path d="M293.468 109.109C293.468 109.929 292.803 110.594 291.984 110.594C291.164 110.594 290.5 109.929 290.5 109.109C290.5 108.289 291.164 107.624 291.984 107.624C292.803 107.624 293.468 108.289 293.468 109.109Z" fill="#FFC6DD"/>
<path d="M302.371 109.109C302.371 109.929 301.707 110.594 300.887 110.594C300.068 110.594 299.403 109.929 299.403 109.109C299.403 108.289 300.068 107.624 300.887 107.624C301.707 107.624 302.371 108.289 302.371 109.109Z" fill="#FFC6DD"/>
<path d="M311.274 109.109C311.274 109.929 310.61 110.594 309.79 110.594C308.971 110.594 308.306 109.929 308.306 109.109C308.306 108.289 308.971 107.624 309.79 107.624C310.61 107.624 311.274 108.289 311.274 109.109Z" fill="#FFC6DD"/>
<path d="M320.177 109.109C320.177 109.929 319.513 110.594 318.694 110.594C317.874 110.594 317.21 109.929 317.21 109.109C317.21 108.289 317.874 107.624 318.694 107.624C319.513 107.624 320.177 108.289 320.177 109.109Z" fill="#FFC6DD"/>
<path d="M329.081 109.109C329.081 109.929 328.416 110.594 327.597 110.594C326.777 110.594 326.113 109.929 326.113 109.109C326.113 108.289 326.777 107.624 327.597 107.624C328.416 107.624 329.081 108.289 329.081 109.109Z" fill="#FFC6DD"/>
<path d="M337.984 109.109C337.984 109.929 337.32 110.594 336.5 110.594C335.68 110.594 335.016 109.929 335.016 109.109C335.016 108.289 335.68 107.624 336.5 107.624C337.32 107.624 337.984 108.289 337.984 109.109Z" fill="#FFC6DD"/>
<path d="M346.887 109.109C346.887 109.929 346.223 110.594 345.403 110.594C344.584 110.594 343.919 109.929 343.919 109.109C343.919 108.289 344.584 107.624 345.403 107.624C346.223 107.624 346.887 108.289 346.887 109.109Z" fill="#FFC6DD"/>
<path d="M355.79 109.109C355.79 109.929 355.126 110.594 354.306 110.594C353.487 110.594 352.823 109.929 352.823 109.109C352.823 108.289 353.487 107.624 354.306 107.624C355.126 107.624 355.79 108.289 355.79 109.109Z" fill="#FFC6DD"/>
<path d="M364.694 109.109C364.694 109.929 364.029 110.594 363.21 110.594C362.39 110.594 361.726 109.929 361.726 109.109C361.726 108.289 362.39 107.624 363.21 107.624C364.029 107.624 364.694 108.289 364.694 109.109Z" fill="#FFC6DD"/>
<path d="M373.597 109.109C373.597 109.929 372.932 110.594 372.113 110.594C371.293 110.594 370.629 109.929 370.629 109.109C370.629 108.289 371.293 107.624 372.113 107.624C372.932 107.624 373.597 108.289 373.597 109.109Z" fill="#FFC6DD"/>
<path d="M382.5 109.109C382.5 109.929 381.836 110.594 381.016 110.594C380.197 110.594 379.532 109.929 379.532 109.109C379.532 108.289 380.197 107.624 381.016 107.624C381.836 107.624 382.5 108.289 382.5 109.109Z" fill="#FFC6DD"/>
<path d="M293.468 118.021C293.468 118.841 292.803 119.506 291.984 119.506C291.164 119.506 290.5 118.841 290.5 118.021C290.5 117.2 291.164 116.535 291.984 116.535C292.803 116.535 293.468 117.2 293.468 118.021Z" fill="#FFC6DD"/>
<path d="M302.371 118.021C302.371 118.841 301.707 119.506 300.887 119.506C300.068 119.506 299.403 118.841 299.403 118.021C299.403 117.2 300.068 116.535 300.887 116.535C301.707 116.535 302.371 117.2 302.371 118.021Z" fill="#FFC6DD"/>
<path d="M311.274 118.021C311.274 118.841 310.61 119.506 309.79 119.506C308.971 119.506 308.306 118.841 308.306 118.021C308.306 117.2 308.971 116.535 309.79 116.535C310.61 116.535 311.274 117.2 311.274 118.021Z" fill="#FFC6DD"/>
<path d="M320.177 118.021C320.177 118.841 319.513 119.506 318.694 119.506C317.874 119.506 317.21 118.841 317.21 118.021C317.21 117.2 317.874 116.535 318.694 116.535C319.513 116.535 320.177 117.2 320.177 118.021Z" fill="#FFC6DD"/>
<path d="M329.081 118.021C329.081 118.841 328.416 119.506 327.597 119.506C326.777 119.506 326.113 118.841 326.113 118.021C326.113 117.2 326.777 116.535 327.597 116.535C328.416 116.535 329.081 117.2 329.081 118.021Z" fill="#FFC6DD"/>
<path d="M337.984 118.021C337.984 118.841 337.32 119.506 336.5 119.506C335.68 119.506 335.016 118.841 335.016 118.021C335.016 117.2 335.68 116.535 336.5 116.535C337.32 116.535 337.984 117.2 337.984 118.021Z" fill="#FFC6DD"/>
<path d="M346.887 118.021C346.887 118.841 346.223 119.506 345.403 119.506C344.584 119.506 343.919 118.841 343.919 118.021C343.919 117.2 344.584 116.535 345.403 116.535C346.223 116.535 346.887 117.2 346.887 118.021Z" fill="#FFC6DD"/>
<path d="M355.79 118.021C355.79 118.841 355.126 119.506 354.306 119.506C353.487 119.506 352.823 118.841 352.823 118.021C352.823 117.2 353.487 116.535 354.306 116.535C355.126 116.535 355.79 117.2 355.79 118.021Z" fill="#FFC6DD"/>
<path d="M364.694 118.021C364.694 118.841 364.029 119.506 363.21 119.506C362.39 119.506 361.726 118.841 361.726 118.021C361.726 117.2 362.39 116.535 363.21 116.535C364.029 116.535 364.694 117.2 364.694 118.021Z" fill="#FFC6DD"/>
<path d="M373.597 118.021C373.597 118.841 372.932 119.506 372.113 119.506C371.293 119.506 370.629 118.841 370.629 118.021C370.629 117.2 371.293 116.535 372.113 116.535C372.932 116.535 373.597 117.2 373.597 118.021Z" fill="#FFC6DD"/>
<path d="M382.5 118.021C382.5 118.841 381.836 119.506 381.016 119.506C380.197 119.506 379.532 118.841 379.532 118.021C379.532 117.2 380.197 116.535 381.016 116.535C381.836 116.535 382.5 117.2 382.5 118.021Z" fill="#FFC6DD"/>
<path d="M293.468 126.933C293.468 127.753 292.803 128.418 291.984 128.418C291.164 128.418 290.5 127.753 290.5 126.933C290.5 126.112 291.164 125.447 291.984 125.447C292.803 125.447 293.468 126.112 293.468 126.933Z" fill="#FFC6DD"/>
<path d="M302.371 126.933C302.371 127.753 301.707 128.418 300.887 128.418C300.068 128.418 299.403 127.753 299.403 126.933C299.403 126.112 300.068 125.447 300.887 125.447C301.707 125.447 302.371 126.112 302.371 126.933Z" fill="#FFC6DD"/>
<path d="M311.274 126.933C311.274 127.753 310.61 128.418 309.79 128.418C308.971 128.418 308.306 127.753 308.306 126.933C308.306 126.112 308.971 125.447 309.79 125.447C310.61 125.447 311.274 126.112 311.274 126.933Z" fill="#FFC6DD"/>
<path d="M320.177 126.933C320.177 127.753 319.513 128.418 318.694 128.418C317.874 128.418 317.21 127.753 317.21 126.933C317.21 126.112 317.874 125.447 318.694 125.447C319.513 125.447 320.177 126.112 320.177 126.933Z" fill="#FFC6DD"/>
<path d="M329.081 126.933C329.081 127.753 328.416 128.418 327.597 128.418C326.777 128.418 326.113 127.753 326.113 126.933C326.113 126.112 326.777 125.447 327.597 125.447C328.416 125.447 329.081 126.112 329.081 126.933Z" fill="#FFC6DD"/>
<path d="M337.984 126.933C337.984 127.753 337.32 128.418 336.5 128.418C335.68 128.418 335.016 127.753 335.016 126.933C335.016 126.112 335.68 125.447 336.5 125.447C337.32 125.447 337.984 126.112 337.984 126.933Z" fill="#FFC6DD"/>
<path d="M346.887 126.933C346.887 127.753 346.223 128.418 345.403 128.418C344.584 128.418 343.919 127.753 343.919 126.933C343.919 126.112 344.584 125.447 345.403 125.447C346.223 125.447 346.887 126.112 346.887 126.933Z" fill="#FFC6DD"/>
<path d="M355.79 126.933C355.79 127.753 355.126 128.418 354.306 128.418C353.487 128.418 352.823 127.753 352.823 126.933C352.823 126.112 353.487 125.447 354.306 125.447C355.126 125.447 355.79 126.112 355.79 126.933Z" fill="#FFC6DD"/>
<path d="M364.694 126.933C364.694 127.753 364.029 128.418 363.21 128.418C362.39 128.418 361.726 127.753 361.726 126.933C361.726 126.112 362.39 125.447 363.21 125.447C364.029 125.447 364.694 126.112 364.694 126.933Z" fill="#FFC6DD"/>
<path d="M373.597 126.933C373.597 127.753 372.932 128.418 372.113 128.418C371.293 128.418 370.629 127.753 370.629 126.933C370.629 126.112 371.293 125.447 372.113 125.447C372.932 125.447 373.597 126.112 373.597 126.933Z" fill="#FFC6DD"/>
<path d="M382.5 126.933C382.5 127.753 381.836 128.418 381.016 128.418C380.197 128.418 379.532 127.753 379.532 126.933C379.532 126.112 380.197 125.447 381.016 125.447C381.836 125.447 382.5 126.112 382.5 126.933Z" fill="#FFC6DD"/>
<path d="M293.468 135.844C293.468 136.665 292.803 137.33 291.984 137.33C291.164 137.33 290.5 136.665 290.5 135.844C290.5 135.024 291.164 134.359 291.984 134.359C292.803 134.359 293.468 135.024 293.468 135.844Z" fill="#FFC6DD"/>
<path d="M302.371 135.844C302.371 136.665 301.707 137.33 300.887 137.33C300.068 137.33 299.403 136.665 299.403 135.844C299.403 135.024 300.068 134.359 300.887 134.359C301.707 134.359 302.371 135.024 302.371 135.844Z" fill="#FFC6DD"/>
<path d="M311.274 135.844C311.274 136.665 310.61 137.33 309.79 137.33C308.971 137.33 308.306 136.665 308.306 135.844C308.306 135.024 308.971 134.359 309.79 134.359C310.61 134.359 311.274 135.024 311.274 135.844Z" fill="#FFC6DD"/>
<path d="M320.177 135.844C320.177 136.665 319.513 137.33 318.694 137.33C317.874 137.33 317.21 136.665 317.21 135.844C317.21 135.024 317.874 134.359 318.694 134.359C319.513 134.359 320.177 135.024 320.177 135.844Z" fill="#FFC6DD"/>
<path d="M329.081 135.844C329.081 136.665 328.416 137.33 327.597 137.33C326.777 137.33 326.113 136.665 326.113 135.844C326.113 135.024 326.777 134.359 327.597 134.359C328.416 134.359 329.081 135.024 329.081 135.844Z" fill="#FFC6DD"/>
<path d="M337.984 135.844C337.984 136.665 337.32 137.33 336.5 137.33C335.68 137.33 335.016 136.665 335.016 135.844C335.016 135.024 335.68 134.359 336.5 134.359C337.32 134.359 337.984 135.024 337.984 135.844Z" fill="#FFC6DD"/>
<path d="M346.887 135.844C346.887 136.665 346.223 137.33 345.403 137.33C344.584 137.33 343.919 136.665 343.919 135.844C343.919 135.024 344.584 134.359 345.403 134.359C346.223 134.359 346.887 135.024 346.887 135.844Z" fill="#FFC6DD"/>
<path d="M355.79 135.844C355.79 136.665 355.126 137.33 354.306 137.33C353.487 137.33 352.823 136.665 352.823 135.844C352.823 135.024 353.487 134.359 354.306 134.359C355.126 134.359 355.79 135.024 355.79 135.844Z" fill="#FFC6DD"/>
<path d="M364.694 135.844C364.694 136.665 364.029 137.33 363.21 137.33C362.39 137.33 361.726 136.665 361.726 135.844C361.726 135.024 362.39 134.359 363.21 134.359C364.029 134.359 364.694 135.024 364.694 135.844Z" fill="#FFC6DD"/>
<path d="M373.597 135.844C373.597 136.665 372.932 137.33 372.113 137.33C371.293 137.33 370.629 136.665 370.629 135.844C370.629 135.024 371.293 134.359 372.113 134.359C372.932 134.359 373.597 135.024 373.597 135.844Z" fill="#FFC6DD"/>
<path d="M382.5 135.844C382.5 136.665 381.836 137.33 381.016 137.33C380.197 137.33 379.532 136.665 379.532 135.844C379.532 135.024 380.197 134.359 381.016 134.359C381.836 134.359 382.5 135.024 382.5 135.844Z" fill="#FFC6DD"/>
<path d="M293.468 144.756C293.468 145.576 292.803 146.241 291.984 146.241C291.164 146.241 290.5 145.576 290.5 144.756C290.5 143.936 291.164 143.271 291.984 143.271C292.803 143.271 293.468 143.936 293.468 144.756Z" fill="#FFC6DD"/>
<path d="M302.371 144.756C302.371 145.576 301.707 146.241 300.887 146.241C300.068 146.241 299.403 145.576 299.403 144.756C299.403 143.936 300.068 143.271 300.887 143.271C301.707 143.271 302.371 143.936 302.371 144.756Z" fill="#FFC6DD"/>
<path d="M311.274 144.756C311.274 145.576 310.61 146.241 309.79 146.241C308.971 146.241 308.306 145.576 308.306 144.756C308.306 143.936 308.971 143.271 309.79 143.271C310.61 143.271 311.274 143.936 311.274 144.756Z" fill="#FFC6DD"/>
<path d="M320.177 144.756C320.177 145.576 319.513 146.241 318.694 146.241C317.874 146.241 317.21 145.576 317.21 144.756C317.21 143.936 317.874 143.271 318.694 143.271C319.513 143.271 320.177 143.936 320.177 144.756Z" fill="#FFC6DD"/>
<path d="M329.081 144.756C329.081 145.576 328.416 146.241 327.597 146.241C326.777 146.241 326.113 145.576 326.113 144.756C326.113 143.936 326.777 143.271 327.597 143.271C328.416 143.271 329.081 143.936 329.081 144.756Z" fill="#FFC6DD"/>
<path d="M337.984 144.756C337.984 145.576 337.32 146.241 336.5 146.241C335.68 146.241 335.016 145.576 335.016 144.756C335.016 143.936 335.68 143.271 336.5 143.271C337.32 143.271 337.984 143.936 337.984 144.756Z" fill="#FFC6DD"/>
<path d="M346.887 144.756C346.887 145.576 346.223 146.241 345.403 146.241C344.584 146.241 343.919 145.576 343.919 144.756C343.919 143.936 344.584 143.271 345.403 143.271C346.223 143.271 346.887 143.936 346.887 144.756Z" fill="#FFC6DD"/>
<path d="M355.79 144.756C355.79 145.576 355.126 146.241 354.306 146.241C353.487 146.241 352.823 145.576 352.823 144.756C352.823 143.936 353.487 143.271 354.306 143.271C355.126 143.271 355.79 143.936 355.79 144.756Z" fill="#FFC6DD"/>
<path d="M364.694 144.756C364.694 145.576 364.029 146.241 363.21 146.241C362.39 146.241 361.726 145.576 361.726 144.756C361.726 143.936 362.39 143.271 363.21 143.271C364.029 143.271 364.694 143.936 364.694 144.756Z" fill="#FFC6DD"/>
<path d="M373.597 144.756C373.597 145.576 372.932 146.241 372.113 146.241C371.293 146.241 370.629 145.576 370.629 144.756C370.629 143.936 371.293 143.271 372.113 143.271C372.932 143.271 373.597 143.936 373.597 144.756Z" fill="#FFC6DD"/>
<path d="M382.5 144.756C382.5 145.576 381.836 146.241 381.016 146.241C380.197 146.241 379.532 145.576 379.532 144.756C379.532 143.936 380.197 143.271 381.016 143.271C381.836 143.271 382.5 143.936 382.5 144.756Z" fill="#FFC6DD"/>
<path d="M293.468 153.668C293.468 154.488 292.803 155.153 291.984 155.153C291.164 155.153 290.5 154.488 290.5 153.668C290.5 152.847 291.164 152.183 291.984 152.183C292.803 152.183 293.468 152.847 293.468 153.668Z" fill="#FFC6DD"/>
<path d="M302.371 153.668C302.371 154.488 301.707 155.153 300.887 155.153C300.068 155.153 299.403 154.488 299.403 153.668C299.403 152.847 300.068 152.183 300.887 152.183C301.707 152.183 302.371 152.847 302.371 153.668Z" fill="#FFC6DD"/>
<path d="M311.274 153.668C311.274 154.488 310.61 155.153 309.79 155.153C308.971 155.153 308.306 154.488 308.306 153.668C308.306 152.847 308.971 152.183 309.79 152.183C310.61 152.183 311.274 152.847 311.274 153.668Z" fill="#FFC6DD"/>
<path d="M320.177 153.668C320.177 154.488 319.513 155.153 318.694 155.153C317.874 155.153 317.21 154.488 317.21 153.668C317.21 152.847 317.874 152.183 318.694 152.183C319.513 152.183 320.177 152.847 320.177 153.668Z" fill="#FFC6DD"/>
<path d="M329.081 153.668C329.081 154.488 328.416 155.153 327.597 155.153C326.777 155.153 326.113 154.488 326.113 153.668C326.113 152.847 326.777 152.183 327.597 152.183C328.416 152.183 329.081 152.847 329.081 153.668Z" fill="#FFC6DD"/>
<path d="M337.984 153.668C337.984 154.488 337.32 155.153 336.5 155.153C335.68 155.153 335.016 154.488 335.016 153.668C335.016 152.847 335.68 152.183 336.5 152.183C337.32 152.183 337.984 152.847 337.984 153.668Z" fill="#FFC6DD"/>
<path d="M346.887 153.668C346.887 154.488 346.223 155.153 345.403 155.153C344.584 155.153 343.919 154.488 343.919 153.668C343.919 152.847 344.584 152.183 345.403 152.183C346.223 152.183 346.887 152.847 346.887 153.668Z" fill="#FFC6DD"/>
<path d="M355.79 153.668C355.79 154.488 355.126 155.153 354.306 155.153C353.487 155.153 352.823 154.488 352.823 153.668C352.823 152.847 353.487 152.183 354.306 152.183C355.126 152.183 355.79 152.847 355.79 153.668Z" fill="#FFC6DD"/>
<path d="M364.694 153.668C364.694 154.488 364.029 155.153 363.21 155.153C362.39 155.153 361.726 154.488 361.726 153.668C361.726 152.847 362.39 152.183 363.21 152.183C364.029 152.183 364.694 152.847 364.694 153.668Z" fill="#FFC6DD"/>
<path d="M373.597 153.668C373.597 154.488 372.932 155.153 372.113 155.153C371.293 155.153 370.629 154.488 370.629 153.668C370.629 152.847 371.293 152.183 372.113 152.183C372.932 152.183 373.597 152.847 373.597 153.668Z" fill="#FFC6DD"/>
<path d="M382.5 153.668C382.5 154.488 381.836 155.153 381.016 155.153C380.197 155.153 379.532 154.488 379.532 153.668C379.532 152.847 380.197 152.183 381.016 152.183C381.836 152.183 382.5 152.847 382.5 153.668Z" fill="#FFC6DD"/>
<path d="M293.468 162.58C293.468 163.4 292.803 164.065 291.984 164.065C291.164 164.065 290.5 163.4 290.5 162.58C290.5 161.759 291.164 161.094 291.984 161.094C292.803 161.094 293.468 161.759 293.468 162.58Z" fill="#FFC6DD"/>
<path d="M302.371 162.58C302.371 163.4 301.707 164.065 300.887 164.065C300.068 164.065 299.403 163.4 299.403 162.58C299.403 161.759 300.068 161.094 300.887 161.094C301.707 161.094 302.371 161.759 302.371 162.58Z" fill="#FFC6DD"/>
<path d="M311.274 162.58C311.274 163.4 310.61 164.065 309.79 164.065C308.971 164.065 308.306 163.4 308.306 162.58C308.306 161.759 308.971 161.094 309.79 161.094C310.61 161.094 311.274 161.759 311.274 162.58Z" fill="#FFC6DD"/>
<path d="M320.177 162.58C320.177 163.4 319.513 164.065 318.694 164.065C317.874 164.065 317.21 163.4 317.21 162.58C317.21 161.759 317.874 161.094 318.694 161.094C319.513 161.094 320.177 161.759 320.177 162.58Z" fill="#FFC6DD"/>
<path d="M329.081 162.58C329.081 163.4 328.416 164.065 327.597 164.065C326.777 164.065 326.113 163.4 326.113 162.58C326.113 161.759 326.777 161.094 327.597 161.094C328.416 161.094 329.081 161.759 329.081 162.58Z" fill="#FFC6DD"/>
<path d="M337.984 162.58C337.984 163.4 337.32 164.065 336.5 164.065C335.68 164.065 335.016 163.4 335.016 162.58C335.016 161.759 335.68 161.094 336.5 161.094C337.32 161.094 337.984 161.759 337.984 162.58Z" fill="#FFC6DD"/>
<path d="M346.887 162.58C346.887 163.4 346.223 164.065 345.403 164.065C344.584 164.065 343.919 163.4 343.919 162.58C343.919 161.759 344.584 161.094 345.403 161.094C346.223 161.094 346.887 161.759 346.887 162.58Z" fill="#FFC6DD"/>
<path d="M355.79 162.58C355.79 163.4 355.126 164.065 354.306 164.065C353.487 164.065 352.823 163.4 352.823 162.58C352.823 161.759 353.487 161.094 354.306 161.094C355.126 161.094 355.79 161.759 355.79 162.58Z" fill="#FFC6DD"/>
<path d="M364.694 162.58C364.694 163.4 364.029 164.065 363.21 164.065C362.39 164.065 361.726 163.4 361.726 162.58C361.726 161.759 362.39 161.094 363.21 161.094C364.029 161.094 364.694 161.759 364.694 162.58Z" fill="#FFC6DD"/>
<path d="M373.597 162.58C373.597 163.4 372.932 164.065 372.113 164.065C371.293 164.065 370.629 163.4 370.629 162.58C370.629 161.759 371.293 161.094 372.113 161.094C372.932 161.094 373.597 161.759 373.597 162.58Z" fill="#FFC6DD"/>
<path d="M382.5 162.58C382.5 163.4 381.836 164.065 381.016 164.065C380.197 164.065 379.532 163.4 379.532 162.58C379.532 161.759 380.197 161.094 381.016 161.094C381.836 161.094 382.5 161.759 382.5 162.58Z" fill="#FFC6DD"/>
<path d="M293.468 171.491C293.468 172.312 292.803 172.977 291.984 172.977C291.164 172.977 290.5 172.312 290.5 171.491C290.5 170.671 291.164 170.006 291.984 170.006C292.803 170.006 293.468 170.671 293.468 171.491Z" fill="#FFC6DD"/>
<path d="M302.371 171.491C302.371 172.312 301.707 172.977 300.887 172.977C300.068 172.977 299.403 172.312 299.403 171.491C299.403 170.671 300.068 170.006 300.887 170.006C301.707 170.006 302.371 170.671 302.371 171.491Z" fill="#FFC6DD"/>
<path d="M311.274 171.491C311.274 172.312 310.61 172.977 309.79 172.977C308.971 172.977 308.306 172.312 308.306 171.491C308.306 170.671 308.971 170.006 309.79 170.006C310.61 170.006 311.274 170.671 311.274 171.491Z" fill="#FFC6DD"/>
<path d="M320.177 171.491C320.177 172.312 319.513 172.977 318.694 172.977C317.874 172.977 317.21 172.312 317.21 171.491C317.21 170.671 317.874 170.006 318.694 170.006C319.513 170.006 320.177 170.671 320.177 171.491Z" fill="#FFC6DD"/>
<path d="M329.081 171.491C329.081 172.312 328.416 172.977 327.597 172.977C326.777 172.977 326.113 172.312 326.113 171.491C326.113 170.671 326.777 170.006 327.597 170.006C328.416 170.006 329.081 170.671 329.081 171.491Z" fill="#FFC6DD"/>
<path d="M337.984 171.491C337.984 172.312 337.32 172.977 336.5 172.977C335.68 172.977 335.016 172.312 335.016 171.491C335.016 170.671 335.68 170.006 336.5 170.006C337.32 170.006 337.984 170.671 337.984 171.491Z" fill="#FFC6DD"/>
<path d="M346.887 171.491C346.887 172.312 346.223 172.977 345.403 172.977C344.584 172.977 343.919 172.312 343.919 171.491C343.919 170.671 344.584 170.006 345.403 170.006C346.223 170.006 346.887 170.671 346.887 171.491Z" fill="#FFC6DD"/>
<path d="M355.79 171.491C355.79 172.312 355.126 172.977 354.306 172.977C353.487 172.977 352.823 172.312 352.823 171.491C352.823 170.671 353.487 170.006 354.306 170.006C355.126 170.006 355.79 170.671 355.79 171.491Z" fill="#FFC6DD"/>
<path d="M364.694 171.491C364.694 172.312 364.029 172.977 363.21 172.977C362.39 172.977 361.726 172.312 361.726 171.491C361.726 170.671 362.39 170.006 363.21 170.006C364.029 170.006 364.694 170.671 364.694 171.491Z" fill="#FFC6DD"/>
<path d="M373.597 171.491C373.597 172.312 372.932 172.977 372.113 172.977C371.293 172.977 370.629 172.312 370.629 171.491C370.629 170.671 371.293 170.006 372.113 170.006C372.932 170.006 373.597 170.671 373.597 171.491Z" fill="#FFC6DD"/>
<path d="M382.5 171.491C382.5 172.312 381.836 172.977 381.016 172.977C380.197 172.977 379.532 172.312 379.532 171.491C379.532 170.671 380.197 170.006 381.016 170.006C381.836 170.006 382.5 170.671 382.5 171.491Z" fill="#FFC6DD"/>
<path d="M293.468 180.403C293.468 181.223 292.803 181.888 291.984 181.888C291.164 181.888 290.5 181.223 290.5 180.403C290.5 179.583 291.164 178.918 291.984 178.918C292.803 178.918 293.468 179.583 293.468 180.403Z" fill="#FFC6DD"/>
<path d="M302.371 180.403C302.371 181.223 301.707 181.888 300.887 181.888C300.068 181.888 299.403 181.223 299.403 180.403C299.403 179.583 300.068 178.918 300.887 178.918C301.707 178.918 302.371 179.583 302.371 180.403Z" fill="#FFC6DD"/>
<path d="M311.274 180.403C311.274 181.223 310.61 181.888 309.79 181.888C308.971 181.888 308.306 181.223 308.306 180.403C308.306 179.583 308.971 178.918 309.79 178.918C310.61 178.918 311.274 179.583 311.274 180.403Z" fill="#FFC6DD"/>
<path d="M320.177 180.403C320.177 181.223 319.513 181.888 318.694 181.888C317.874 181.888 317.21 181.223 317.21 180.403C317.21 179.583 317.874 178.918 318.694 178.918C319.513 178.918 320.177 179.583 320.177 180.403Z" fill="#FFC6DD"/>
<path d="M329.081 180.403C329.081 181.223 328.416 181.888 327.597 181.888C326.777 181.888 326.113 181.223 326.113 180.403C326.113 179.583 326.777 178.918 327.597 178.918C328.416 178.918 329.081 179.583 329.081 180.403Z" fill="#FFC6DD"/>
<path d="M337.984 180.403C337.984 181.223 337.32 181.888 336.5 181.888C335.68 181.888 335.016 181.223 335.016 180.403C335.016 179.583 335.68 178.918 336.5 178.918C337.32 178.918 337.984 179.583 337.984 180.403Z" fill="#FFC6DD"/>
<path d="M346.887 180.403C346.887 181.223 346.223 181.888 345.403 181.888C344.584 181.888 343.919 181.223 343.919 180.403C343.919 179.583 344.584 178.918 345.403 178.918C346.223 178.918 346.887 179.583 346.887 180.403Z" fill="#FFC6DD"/>
<path d="M355.79 180.403C355.79 181.223 355.126 181.888 354.306 181.888C353.487 181.888 352.823 181.223 352.823 180.403C352.823 179.583 353.487 178.918 354.306 178.918C355.126 178.918 355.79 179.583 355.79 180.403Z" fill="#FFC6DD"/>
<path d="M364.694 180.403C364.694 181.223 364.029 181.888 363.21 181.888C362.39 181.888 361.726 181.223 361.726 180.403C361.726 179.583 362.39 178.918 363.21 178.918C364.029 178.918 364.694 179.583 364.694 180.403Z" fill="#FFC6DD"/>
<path d="M373.597 180.403C373.597 181.223 372.932 181.888 372.113 181.888C371.293 181.888 370.629 181.223 370.629 180.403C370.629 179.583 371.293 178.918 372.113 178.918C372.932 178.918 373.597 179.583 373.597 180.403Z" fill="#FFC6DD"/>
<path d="M382.5 180.403C382.5 181.223 381.836 181.888 381.016 181.888C380.197 181.888 379.532 181.223 379.532 180.403C379.532 179.583 380.197 178.918 381.016 178.918C381.836 178.918 382.5 179.583 382.5 180.403Z" fill="#FFC6DD"/>
<path d="M293.468 189.315C293.468 190.135 292.803 190.8 291.984 190.8C291.164 190.8 290.5 190.135 290.5 189.315C290.5 188.495 291.164 187.83 291.984 187.83C292.803 187.83 293.468 188.495 293.468 189.315Z" fill="#FFC6DD"/>
<path d="M302.371 189.315C302.371 190.135 301.707 190.8 300.887 190.8C300.068 190.8 299.403 190.135 299.403 189.315C299.403 188.495 300.068 187.83 300.887 187.83C301.707 187.83 302.371 188.495 302.371 189.315Z" fill="#FFC6DD"/>
<path d="M311.274 189.315C311.274 190.135 310.61 190.8 309.79 190.8C308.971 190.8 308.306 190.135 308.306 189.315C308.306 188.495 308.971 187.83 309.79 187.83C310.61 187.83 311.274 188.495 311.274 189.315Z" fill="#FFC6DD"/>
<path d="M320.177 189.315C320.177 190.135 319.513 190.8 318.694 190.8C317.874 190.8 317.21 190.135 317.21 189.315C317.21 188.495 317.874 187.83 318.694 187.83C319.513 187.83 320.177 188.495 320.177 189.315Z" fill="#FFC6DD"/>
<path d="M329.081 189.315C329.081 190.135 328.416 190.8 327.597 190.8C326.777 190.8 326.113 190.135 326.113 189.315C326.113 188.495 326.777 187.83 327.597 187.83C328.416 187.83 329.081 188.495 329.081 189.315Z" fill="#FFC6DD"/>
<path d="M337.984 189.315C337.984 190.135 337.32 190.8 336.5 190.8C335.68 190.8 335.016 190.135 335.016 189.315C335.016 188.495 335.68 187.83 336.5 187.83C337.32 187.83 337.984 188.495 337.984 189.315Z" fill="#FFC6DD"/>
<path d="M346.887 189.315C346.887 190.135 346.223 190.8 345.403 190.8C344.584 190.8 343.919 190.135 343.919 189.315C343.919 188.495 344.584 187.83 345.403 187.83C346.223 187.83 346.887 188.495 346.887 189.315Z" fill="#FFC6DD"/>
<path d="M355.79 189.315C355.79 190.135 355.126 190.8 354.306 190.8C353.487 190.8 352.823 190.135 352.823 189.315C352.823 188.495 353.487 187.83 354.306 187.83C355.126 187.83 355.79 188.495 355.79 189.315Z" fill="#FFC6DD"/>
<path d="M364.694 189.315C364.694 190.135 364.029 190.8 363.21 190.8C362.39 190.8 361.726 190.135 361.726 189.315C361.726 188.495 362.39 187.83 363.21 187.83C364.029 187.83 364.694 188.495 364.694 189.315Z" fill="#FFC6DD"/>
<path d="M373.597 189.315C373.597 190.135 372.932 190.8 372.113 190.8C371.293 190.8 370.629 190.135 370.629 189.315C370.629 188.495 371.293 187.83 372.113 187.83C372.932 187.83 373.597 188.495 373.597 189.315Z" fill="#FFC6DD"/>
<path d="M382.5 189.315C382.5 190.135 381.836 190.8 381.016 190.8C380.197 190.8 379.532 190.135 379.532 189.315C379.532 188.495 380.197 187.83 381.016 187.83C381.836 187.83 382.5 188.495 382.5 189.315Z" fill="#FFC6DD"/>
<path d="M293.468 198.227C293.468 199.047 292.803 199.712 291.984 199.712C291.164 199.712 290.5 199.047 290.5 198.227C290.5 197.406 291.164 196.741 291.984 196.741C292.803 196.741 293.468 197.406 293.468 198.227Z" fill="#FFC6DD"/>
<path d="M302.371 198.227C302.371 199.047 301.707 199.712 300.887 199.712C300.068 199.712 299.403 199.047 299.403 198.227C299.403 197.406 300.068 196.741 300.887 196.741C301.707 196.741 302.371 197.406 302.371 198.227Z" fill="#FFC6DD"/>
<path d="M311.274 198.227C311.274 199.047 310.61 199.712 309.79 199.712C308.971 199.712 308.306 199.047 308.306 198.227C308.306 197.406 308.971 196.741 309.79 196.741C310.61 196.741 311.274 197.406 311.274 198.227Z" fill="#FFC6DD"/>
<path d="M320.177 198.227C320.177 199.047 319.513 199.712 318.694 199.712C317.874 199.712 317.21 199.047 317.21 198.227C317.21 197.406 317.874 196.741 318.694 196.741C319.513 196.741 320.177 197.406 320.177 198.227Z" fill="#FFC6DD"/>
<path d="M329.081 198.227C329.081 199.047 328.416 199.712 327.597 199.712C326.777 199.712 326.113 199.047 326.113 198.227C326.113 197.406 326.777 196.741 327.597 196.741C328.416 196.741 329.081 197.406 329.081 198.227Z" fill="#FFC6DD"/>
<path d="M337.984 198.227C337.984 199.047 337.32 199.712 336.5 199.712C335.68 199.712 335.016 199.047 335.016 198.227C335.016 197.406 335.68 196.741 336.5 196.741C337.32 196.741 337.984 197.406 337.984 198.227Z" fill="#FFC6DD"/>
<path d="M346.887 198.227C346.887 199.047 346.223 199.712 345.403 199.712C344.584 199.712 343.919 199.047 343.919 198.227C343.919 197.406 344.584 196.741 345.403 196.741C346.223 196.741 346.887 197.406 346.887 198.227Z" fill="#FFC6DD"/>
<path d="M355.79 198.227C355.79 199.047 355.126 199.712 354.306 199.712C353.487 199.712 352.823 199.047 352.823 198.227C352.823 197.406 353.487 196.741 354.306 196.741C355.126 196.741 355.79 197.406 355.79 198.227Z" fill="#FFC6DD"/>
<path d="M364.694 198.227C364.694 199.047 364.029 199.712 363.21 199.712C362.39 199.712 361.726 199.047 361.726 198.227C361.726 197.406 362.39 196.741 363.21 196.741C364.029 196.741 364.694 197.406 364.694 198.227Z" fill="#FFC6DD"/>
<path d="M373.597 198.227C373.597 199.047 372.932 199.712 372.113 199.712C371.293 199.712 370.629 199.047 370.629 198.227C370.629 197.406 371.293 196.741 372.113 196.741C372.932 196.741 373.597 197.406 373.597 198.227Z" fill="#FFC6DD"/>
<path d="M382.5 198.227C382.5 199.047 381.836 199.712 381.016 199.712C380.197 199.712 379.532 199.047 379.532 198.227C379.532 197.406 380.197 196.741 381.016 196.741C381.836 196.741 382.5 197.406 382.5 198.227Z" fill="#FFC6DD"/>
<path fill-rule="evenodd" clip-rule="evenodd" d="M65.165 102.711C64.7056 103.173 63.946 103.188 63.4683 102.743L56.5 96.2593L49.5317 102.743C49.054 103.188 48.2944 103.173 47.835 102.711C47.3756 102.249 47.3905 101.514 47.8683 101.069L55.2524 94.1982C55.9492 93.5498 57.0508 93.5498 57.7476 94.1982L65.1317 101.069C65.6095 101.514 65.6244 102.249 65.165 102.711ZM65.165 112.872C64.7056 113.335 63.946 113.349 63.4683 112.904L56.5 106.42L49.5317 112.904C49.054 113.349 48.2944 113.335 47.835 112.872C47.3756 112.41 47.3905 111.675 47.8683 111.23L55.2524 104.359C55.9492 103.711 57.0508 103.711 57.7476 104.359L65.1317 111.23C65.6095 111.675 65.6244 112.41 65.165 112.872ZM63.4683 123.066C63.946 123.51 64.7056 123.496 65.165 123.033C65.6244 122.571 65.6095 121.836 65.1317 121.391L57.7476 114.52C57.0508 113.872 55.9492 113.872 55.2524 114.52L47.8683 121.391C47.3905 121.836 47.3756 122.571 47.835 123.033C48.2944 123.496 49.054 123.51 49.5317 123.066L56.5 116.582L63.4683 123.066ZM65.165 133.194C64.7056 133.657 63.946 133.671 63.4683 133.227L56.5 126.743L49.5317 133.227C49.054 133.671 48.2944 133.657 47.835 133.194C47.3756 132.732 47.3905 131.997 47.8683 131.552L55.2524 124.681C55.9492 124.033 57.0508 124.033 57.7476 124.681L65.1317 131.552C65.6095 131.997 65.6244 132.732 65.165 133.194ZM63.4683 143.388C63.946 143.832 64.7056 143.818 65.165 143.356C65.6244 142.893 65.6095 142.158 65.1317 141.714L57.7476 134.843C57.0508 134.194 55.9492 134.194 55.2524 134.843L47.8683 141.714C47.3905 142.158 47.3756 142.893 47.835 143.356C48.2944 143.818 49.054 143.832 49.5317 143.388L56.5 136.904L63.4683 143.388Z" stroke="#FFC6DD" stroke-linecap="round"/>
</g>
</g>
<defs>
<filter id="filter0_d_363_3010" x="-0.5" y="0.711914" width="376" height="150" filterUnits="userSpaceOnUse" color-interpolation-filters="sRGB">
<feFlood flood-opacity="0" result="BackgroundImageFix"/>
<feColorMatrix in="SourceAlpha" type="matrix" values="0 0 0 0 0 0 0 0 0 0 0 0 0 0 0 0 0 0 127 0" result="hardAlpha"/>
<feOffset dy="4"/>
<feGaussianBlur stdDeviation="10"/>
<feComposite in2="hardAlpha" operator="out"/>
<feColorMatrix type="matrix" values="0 0 0 0 0.945098 0 0 0 0 0.294118 0 0 0 0 0.560784 0 0 0 0.05 0"/>
<feBlend mode="normal" in2="BackgroundImageFix" result="effect1_dropShadow_363_3010"/>
<feBlend mode="normal" in="SourceGraphic" in2="effect1_dropShadow_363_3010" result="shape"/>
</filter>
<clipPath id="clip0_363_3010">
<rect x="19.5" y="16.7119" width="336" height="110" rx="8" fill="white"/>
</clipPath>
</defs>
</svg>
