<svg width="20" height="24" viewBox="0 0 20 24" fill="none" xmlns="http://www.w3.org/2000/svg">
<path d="M2.87907 1.55843C2.60833 1.55843 2.34867 1.66598 2.15723 1.85743C1.96579 2.04887 1.85824 2.30852 1.85824 2.57926V21.9751H3.8999V18.9126C3.8999 18.5645 4.03818 18.2307 4.28432 17.9845C4.53047 17.7384 4.86431 17.6001 5.2124 17.6001H14.2541C14.6022 17.6001 14.936 17.7384 15.1821 17.9845C15.4283 18.2307 15.5666 18.5645 15.5666 18.9126V21.9751H17.6082V11.3293C17.6082 11.0585 17.5007 10.7989 17.3092 10.6074C17.1178 10.416 16.8581 10.3084 16.5874 10.3084H13.6707C13.2682 10.3084 12.9416 9.98176 12.9416 9.57926V2.57926C12.9416 2.44521 12.9152 2.31246 12.8639 2.18861C12.8126 2.06476 12.7374 1.95222 12.6426 1.85743C12.5478 1.76263 12.4352 1.68744 12.3114 1.63614C12.1875 1.58484 12.0548 1.55843 11.9207 1.55843H2.87907ZM1.12907 23.4334C0.726569 23.4334 0.399902 23.1068 0.399902 22.7043V2.57926C0.399902 1.92175 0.661099 1.29116 1.12603 0.826229C1.59097 0.361295 2.22155 0.100098 2.87907 0.100098H11.9207C12.5783 0.100098 13.2088 0.361295 13.6738 0.826229C14.1387 1.29116 14.3999 1.92175 14.3999 2.57926V8.8501H16.5874C17.2449 8.8501 17.8755 9.11129 18.3404 9.57623C18.8054 10.0412 19.0666 10.6717 19.0666 11.3293V22.7043C19.0666 23.1068 18.7399 23.4334 18.3374 23.4334H1.12907ZM5.35824 21.9751H9.00407V19.0584H5.35824V21.9751ZM10.4624 21.9751H14.1082V19.0584H10.4624V21.9751ZM6.23324 5.93343C6.23324 6.24285 6.11032 6.5396 5.89153 6.75839C5.67273 6.97718 5.37599 7.1001 5.06657 7.1001C4.75715 7.1001 4.4604 6.97718 4.24161 6.75839C4.02282 6.5396 3.8999 6.24285 3.8999 5.93343C3.8999 5.62401 4.02282 5.32727 4.24161 5.10847C4.4604 4.88968 4.75715 4.76676 5.06657 4.76676C5.37599 4.76676 5.67273 4.88968 5.89153 5.10847C6.11032 5.32727 6.23324 5.62401 6.23324 5.93343ZM5.06657 11.1834C5.37599 11.1834 5.67273 11.0605 5.89153 10.8417C6.11032 10.6229 6.23324 10.3262 6.23324 10.0168C6.23324 9.70735 6.11032 9.4106 5.89153 9.19181C5.67273 8.97301 5.37599 8.8501 5.06657 8.8501C4.75715 8.8501 4.4604 8.97301 4.24161 9.19181C4.02282 9.4106 3.8999 9.70735 3.8999 10.0168C3.8999 10.3262 4.02282 10.6229 4.24161 10.8417C4.4604 11.0605 4.75715 11.1834 5.06657 11.1834ZM6.23324 14.1001C6.23324 14.4095 6.11032 14.7063 5.89153 14.9251C5.67273 15.1438 5.37599 15.2668 5.06657 15.2668C4.75715 15.2668 4.4604 15.1438 4.24161 14.9251C4.02282 14.7063 3.8999 14.4095 3.8999 14.1001C3.8999 13.7907 4.02282 13.4939 4.24161 13.2751C4.4604 13.0563 4.75715 12.9334 5.06657 12.9334C5.37599 12.9334 5.67273 13.0563 5.89153 13.2751C6.11032 13.4939 6.23324 13.7907 6.23324 14.1001ZM9.73324 7.1001C10.0427 7.1001 10.3394 6.97718 10.5582 6.75839C10.777 6.5396 10.8999 6.24285 10.8999 5.93343C10.8999 5.62401 10.777 5.32727 10.5582 5.10847C10.3394 4.88968 10.0427 4.76676 9.73324 4.76676C9.42382 4.76676 9.12707 4.88968 8.90828 5.10847C8.68949 5.32727 8.56657 5.62401 8.56657 5.93343C8.56657 6.24285 8.68949 6.5396 8.90828 6.75839C9.12707 6.97718 9.42382 7.1001 9.73324 7.1001ZM10.8999 10.0168C10.8999 10.3262 10.777 10.6229 10.5582 10.8417C10.3394 11.0605 10.0427 11.1834 9.73324 11.1834C9.42382 11.1834 9.12707 11.0605 8.90828 10.8417C8.68949 10.6229 8.56657 10.3262 8.56657 10.0168C8.56657 9.70735 8.68949 9.4106 8.90828 9.19181C9.12707 8.97301 9.42382 8.8501 9.73324 8.8501C10.0427 8.8501 10.3394 8.97301 10.5582 9.19181C10.777 9.4106 10.8999 9.70735 10.8999 10.0168ZM9.73324 15.2668C10.0427 15.2668 10.3394 15.1438 10.5582 14.9251C10.777 14.7063 10.8999 14.4095 10.8999 14.1001C10.8999 13.7907 10.777 13.4939 10.5582 13.2751C10.3394 13.0563 10.0427 12.9334 9.73324 12.9334C9.42382 12.9334 9.12707 13.0563 8.90828 13.2751C8.68949 13.4939 8.56657 13.7907 8.56657 14.1001C8.56657 14.4095 8.68949 14.7063 8.90828 14.9251C9.12707 15.1438 9.42382 15.2668 9.73324 15.2668ZM15.5666 14.1001C15.5666 14.4095 15.4437 14.7063 15.2249 14.9251C15.0061 15.1438 14.7093 15.2668 14.3999 15.2668C14.0905 15.2668 13.7937 15.1438 13.5749 14.9251C13.3562 14.7063 13.2332 14.4095 13.2332 14.1001C13.2332 13.7907 13.3562 13.4939 13.5749 13.2751C13.7937 13.0563 14.0905 12.9334 14.3999 12.9334C14.7093 12.9334 15.0061 13.0563 15.2249 13.2751C15.4437 13.4939 15.5666 13.7907 15.5666 14.1001Z" fill="#F14B8F"/>
</svg>
