<svg width="20" height="21" viewBox="0 0 20 21" fill="none" xmlns="http://www.w3.org/2000/svg">
<path fill-rule="evenodd" clip-rule="evenodd" d="M4.6875 0.763672C4.93614 0.763672 5.1746 0.862444 5.35041 1.03826C5.52623 1.21407 5.625 1.45253 5.625 1.70117V3.26367H14.375V1.70117C14.375 1.45253 14.4738 1.21407 14.6496 1.03826C14.8254 0.862444 15.0639 0.763672 15.3125 0.763672C15.5611 0.763672 15.7996 0.862444 15.9754 1.03826C16.1512 1.21407 16.25 1.45253 16.25 1.70117V3.26367H16.5625C17.4742 3.26367 18.3485 3.62584 18.9932 4.27049C19.6378 4.91515 20 5.78949 20 6.70117V17.3262C20 18.2379 19.6378 19.1122 18.9932 19.7569C18.3485 20.4015 17.4742 20.7637 16.5625 20.7637H3.4375C2.52582 20.7637 1.65148 20.4015 1.00682 19.7569C0.362164 19.1122 0 18.2379 0 17.3262V6.70117C0 5.78949 0.362164 4.91515 1.00682 4.27049C1.65148 3.62584 2.52582 3.26367 3.4375 3.26367H3.75V1.70117C3.75 1.45253 3.84877 1.21407 4.02459 1.03826C4.2004 0.862444 4.43886 0.763672 4.6875 0.763672ZM3.4375 7.63867C2.575 7.63867 1.875 8.33867 1.875 9.20117V17.3262C1.875 18.1887 2.575 18.8887 3.4375 18.8887H16.5625C17.425 18.8887 18.125 18.1887 18.125 17.3262V9.20117C18.125 8.33867 17.425 7.63867 16.5625 7.63867H3.4375Z" fill="#F378F6"/>
</svg>
