<svg width="16" height="16" viewBox="0 0 16 16" fill="none" xmlns="http://www.w3.org/2000/svg">
<path d="M14.025 10.4285L11.9084 10.1869C11.6595 10.1577 11.4072 10.1852 11.1705 10.2675C10.9338 10.3497 10.7188 10.4846 10.5417 10.6619L9.00837 12.1952C6.64269 10.9921 4.71985 9.06923 3.5167 6.70355L5.05837 5.16188C5.4167 4.80355 5.5917 4.30355 5.53337 3.79522L5.2917 1.69522C5.24446 1.2887 5.04936 0.913746 4.74356 0.641755C4.43777 0.369765 4.04262 0.21973 3.63337 0.220216H2.1917C1.25003 0.220216 0.466701 1.00355 0.525034 1.94522C0.966701 9.06188 6.65837 14.7452 13.7667 15.1869C14.7084 15.2452 15.4917 14.4619 15.4917 13.5202V12.0785C15.5 11.2369 14.8667 10.5285 14.025 10.4285Z" fill="white"/>
</svg>
