<svg width="19" height="17" viewBox="0 0 19 17" fill="none" xmlns="http://www.w3.org/2000/svg">
<path fill-rule="evenodd" clip-rule="evenodd" d="M0.5 1.46191C0.5 1.263 0.579018 1.07224 0.71967 0.931584C0.860322 0.790932 1.05109 0.711914 1.25 0.711914H11.75C11.9489 0.711914 12.1397 0.790932 12.2803 0.931584C12.421 1.07224 12.5 1.263 12.5 1.46191C12.5 1.66083 12.421 1.85159 12.2803 1.99224C12.1397 2.1329 11.9489 2.21191 11.75 2.21191H11.5V15.9619C11.5 16.1608 11.421 16.3516 11.2803 16.4922C11.1397 16.6329 10.9489 16.7119 10.75 16.7119H9.25C9.05109 16.7119 8.86032 16.6329 8.71967 16.4922C8.57902 16.3516 8.5 16.1608 8.5 15.9619V13.4619C8.5 13.263 8.42098 13.0722 8.28033 12.9316C8.13968 12.7909 7.94891 12.7119 7.75 12.7119H5.25C5.05109 12.7119 4.86032 12.7909 4.71967 12.9316C4.57902 13.0722 4.5 13.263 4.5 13.4619V15.9619C4.5 16.1608 4.42098 16.3516 4.28033 16.4922C4.13968 16.6329 3.94891 16.7119 3.75 16.7119H1.25C1.05109 16.7119 0.860322 16.6329 0.71967 16.4922C0.579018 16.3516 0.5 16.1608 0.5 15.9619C0.5 15.763 0.579018 15.5722 0.71967 15.4316C0.860322 15.2909 1.05109 15.2119 1.25 15.2119H1.5V2.21191H1.25C1.05109 2.21191 0.860322 2.1329 0.71967 1.99224C0.579018 1.85159 0.5 1.66083 0.5 1.46191ZM3.5 4.21191C3.5 4.07931 3.55268 3.95213 3.64645 3.85836C3.74021 3.76459 3.86739 3.71191 4 3.71191H5C5.13261 3.71191 5.25979 3.76459 5.35355 3.85836C5.44732 3.95213 5.5 4.07931 5.5 4.21191V5.21191C5.5 5.34452 5.44732 5.4717 5.35355 5.56547C5.25979 5.65924 5.13261 5.71191 5 5.71191H4C3.86739 5.71191 3.74021 5.65924 3.64645 5.56547C3.55268 5.4717 3.5 5.34452 3.5 5.21191V4.21191ZM4 7.71191C3.86739 7.71191 3.74021 7.76459 3.64645 7.85836C3.55268 7.95213 3.5 8.07931 3.5 8.21191V9.21191C3.5 9.34452 3.55268 9.4717 3.64645 9.56547C3.74021 9.65924 3.86739 9.71191 4 9.71191H5C5.13261 9.71191 5.25979 9.65924 5.35355 9.56547C5.44732 9.4717 5.5 9.34452 5.5 9.21191V8.21191C5.5 8.07931 5.44732 7.95213 5.35355 7.85836C5.25979 7.76459 5.13261 7.71191 5 7.71191H4ZM7.5 4.21191C7.5 4.07931 7.55268 3.95213 7.64645 3.85836C7.74021 3.76459 7.86739 3.71191 8 3.71191H9C9.13261 3.71191 9.25979 3.76459 9.35355 3.85836C9.44732 3.95213 9.5 4.07931 9.5 4.21191V5.21191C9.5 5.34452 9.44732 5.4717 9.35355 5.56547C9.25979 5.65924 9.13261 5.71191 9 5.71191H8C7.86739 5.71191 7.74021 5.65924 7.64645 5.56547C7.55268 5.4717 7.5 5.34452 7.5 5.21191V4.21191ZM8 7.71191C7.86739 7.71191 7.74021 7.76459 7.64645 7.85836C7.55268 7.95213 7.5 8.07931 7.5 8.21191V9.21191C7.5 9.34452 7.55268 9.4717 7.64645 9.56547C7.74021 9.65924 7.86739 9.71191 8 9.71191H9C9.13261 9.71191 9.25979 9.65924 9.35355 9.56547C9.44732 9.4717 9.5 9.34452 9.5 9.21191V8.21191C9.5 8.07931 9.44732 7.95213 9.35355 7.85836C9.25979 7.76459 9.13261 7.71191 9 7.71191H8ZM13.75 4.71191C13.5511 4.71191 13.3603 4.79093 13.2197 4.93158C13.079 5.07224 13 5.263 13 5.46191V15.7119C13 15.9771 13.1054 16.2315 13.2929 16.419C13.4804 16.6066 13.7348 16.7119 14 16.7119H17.75C17.9489 16.7119 18.1397 16.6329 18.2803 16.4922C18.421 16.3516 18.5 16.1608 18.5 15.9619C18.5 15.763 18.421 15.5722 18.2803 15.4316C18.1397 15.2909 17.9489 15.2119 17.75 15.2119H17.5V6.21191H17.75C17.9489 6.21191 18.1397 6.1329 18.2803 5.99224C18.421 5.85159 18.5 5.66083 18.5 5.46191C18.5 5.263 18.421 5.07224 18.2803 4.93158C18.1397 4.79093 17.9489 4.71191 17.75 4.71191H13.75ZM14.25 8.21191C14.25 8.07931 14.3027 7.95213 14.3964 7.85836C14.4902 7.76459 14.6174 7.71191 14.75 7.71191H15.75C15.8826 7.71191 16.0098 7.76459 16.1036 7.85836C16.1973 7.95213 16.25 8.07931 16.25 8.21191V9.21191C16.25 9.34452 16.1973 9.4717 16.1036 9.56547C16.0098 9.65924 15.8826 9.71191 15.75 9.71191H14.75C14.6174 9.71191 14.4902 9.65924 14.3964 9.56547C14.3027 9.4717 14.25 9.34452 14.25 9.21191V8.21191ZM14.75 11.7119C14.6174 11.7119 14.4902 11.7646 14.3964 11.8584C14.3027 11.9521 14.25 12.0793 14.25 12.2119V13.2119C14.25 13.3445 14.3027 13.4717 14.3964 13.5655C14.4902 13.6592 14.6174 13.7119 14.75 13.7119H15.75C15.8826 13.7119 16.0098 13.6592 16.1036 13.5655C16.1973 13.4717 16.25 13.3445 16.25 13.2119V12.2119C16.25 12.0793 16.1973 11.9521 16.1036 11.8584C16.0098 11.7646 15.8826 11.7119 15.75 11.7119H14.75Z" fill="#F14B8F"/>
</svg>
