<svg width="14" height="21" viewBox="0 0 14 21" fill="none" xmlns="http://www.w3.org/2000/svg">
<path d="M13.5741 17.0499C12.8171 15.9989 10.7231 13.2259 9.00409 10.9439C9.70009 9.94491 10.2551 9.12891 10.5091 8.70191C12.0541 6.10791 11.3831 4.44191 10.5311 3.03191C9.67709 1.62091 9.54209 0.805908 7.00009 0.805908C4.45709 0.805908 4.32209 1.62091 3.46909 3.03291C2.61509 4.44291 1.94509 6.10891 3.49009 8.70291C3.74409 9.12891 4.29909 9.94591 4.99609 10.9449C3.27609 13.2259 1.18209 15.9999 0.425093 17.0509C0.249093 17.2949 0.265093 17.7149 0.434093 18.1329C0.564093 18.4549 1.06409 19.8949 1.18609 20.1969C1.34209 20.5859 1.85009 20.8669 2.26809 20.2889C2.50909 19.9549 4.85009 16.7639 7.00009 13.7669C9.14909 16.7629 11.4911 19.9549 11.7321 20.2889C12.1491 20.8669 12.6581 20.5859 12.8141 20.1969C12.9361 19.8939 13.4361 18.4549 13.5661 18.1329C13.7331 17.7139 13.7501 17.2939 13.5741 17.0499ZM6.63409 7.77491C5.56609 6.29091 4.80209 4.56391 4.80209 4.56391C4.80209 4.56391 5.22209 3.80591 7.00009 3.80591C8.77809 3.80591 9.19809 4.56391 9.19809 4.56391C9.19809 4.56391 8.43209 6.29091 7.36509 7.77491L7.00009 8.27191C6.87684 8.10717 6.75483 7.9415 6.63409 7.77491Z" fill="white"/>
</svg>
