<svg width="38" height="36" viewBox="0 0 38 36" fill="none" xmlns="http://www.w3.org/2000/svg">
<path opacity="0.25" fill-rule="evenodd" clip-rule="evenodd" d="M18.829 35.374C28.9706 35.374 37.1919 27.539 37.1919 17.874C37.1919 8.20904 28.9706 0.374023 18.829 0.374023C8.68743 0.374023 0.466064 8.20904 0.466064 17.874C0.466064 27.539 8.68743 35.374 18.829 35.374Z" fill="#F14B8F"/>
<path d="M20.5003 13.3948H22.1879C22.3431 13.3948 22.4691 13.2816 22.4691 13.1422V11.6266C22.4691 11.4872 22.3431 11.374 22.1879 11.374H20.5003C18.7948 11.374 17.4065 12.6203 17.4065 14.1526V15.9208H15.4377C15.2825 15.9208 15.1565 16.034 15.1565 16.1734V17.689C15.1565 17.8284 15.2825 17.9416 15.4377 17.9416H17.4065V23.2461C17.4065 23.3856 17.5325 23.4987 17.6878 23.4987H19.3753C19.5306 23.4987 19.6566 23.3856 19.6566 23.2461V17.9416H21.6254C21.7463 17.9416 21.8538 17.8719 21.8926 17.7688L22.4551 16.2532C22.4838 16.1764 22.4691 16.0915 22.4163 16.0254C22.3628 15.9597 22.2784 15.9208 22.1879 15.9208H19.6566V14.1526C19.6566 13.7348 20.0352 13.3948 20.5003 13.3948Z" fill="#F14B8F"/>
</svg>
