<svg width="19" height="18" viewBox="0 0 19 18" fill="none" xmlns="http://www.w3.org/2000/svg">
<path fill-rule="evenodd" clip-rule="evenodd" d="M8.96247 0.791389C9.06677 0.739127 9.18182 0.711914 9.29847 0.711914C9.41513 0.711914 9.53018 0.739127 9.63447 0.791389C12.5745 2.26457 15.3269 4.08562 17.8325 6.21539C17.9342 6.30182 18.0111 6.41385 18.0551 6.53991C18.0991 6.66596 18.1086 6.80148 18.0827 6.93246C18.0568 7.06343 17.9964 7.18513 17.9078 7.28497C17.8191 7.38481 17.7055 7.45917 17.5785 7.50039C14.7925 8.4039 12.1469 9.69309 9.71847 11.3304C9.59445 11.4142 9.44817 11.459 9.29847 11.459C9.14877 11.459 9.0025 11.4142 8.87847 11.3304C8.20206 10.8746 7.5082 10.4453 6.79847 10.0434V8.86639C6.79847 8.62239 6.91447 8.40339 7.10047 8.27439C8.16426 7.53698 9.26757 6.8583 10.4055 6.24139C10.5775 6.14514 10.7047 5.98506 10.7595 5.79577C10.8144 5.60648 10.7926 5.40319 10.6988 5.22986C10.605 5.05654 10.4467 4.92711 10.2582 4.86957C10.0697 4.81203 9.8661 4.83101 9.69147 4.92239C8.505 5.56568 7.35461 6.2734 6.24547 7.04239C5.9522 7.24725 5.71288 7.52006 5.54797 7.83752C5.38305 8.15498 5.29745 8.50765 5.29847 8.86539V9.24539C3.9168 8.55867 2.48623 7.97508 1.01847 7.49939C0.891481 7.45817 0.777794 7.3838 0.689152 7.28397C0.60051 7.18413 0.540126 7.06243 0.514236 6.93146C0.488346 6.80048 0.497889 6.66496 0.54188 6.53891C0.58587 6.41285 0.662712 6.30082 0.764472 6.21439C3.27007 4.08462 6.02246 2.26357 8.96247 0.790389V0.791389ZM5.29847 10.9314C4.49812 10.5084 3.67894 10.122 2.84347 9.77339C2.67381 10.806 2.54371 11.8448 2.45347 12.8874C2.44019 13.0387 2.47314 13.1904 2.54796 13.3225C2.62277 13.4546 2.73593 13.561 2.87247 13.6274C3.40047 13.8834 3.91847 14.1574 4.42647 14.4474C4.21647 14.7714 3.97147 15.0774 3.68747 15.3614C3.61379 15.4301 3.55468 15.5129 3.51369 15.6049C3.4727 15.6968 3.45066 15.7962 3.44888 15.8969C3.4471 15.9976 3.46563 16.0976 3.50335 16.191C3.54107 16.2844 3.59721 16.3692 3.66843 16.4404C3.73965 16.5116 3.82449 16.5678 3.91787 16.6055C4.01126 16.6432 4.11129 16.6618 4.21199 16.66C4.3127 16.6582 4.41201 16.6362 4.50401 16.5952C4.59601 16.5542 4.67881 16.4951 4.74747 16.4214C5.11747 16.0524 5.43747 15.6514 5.70747 15.2284C6.79497 15.9346 7.82939 16.7194 8.80247 17.5764C8.93947 17.6972 9.11583 17.7638 9.29847 17.7638C9.48111 17.7638 9.65748 17.6972 9.79447 17.5764C11.5847 15.9992 13.5793 14.6706 15.7245 13.6264C15.861 13.5602 15.9743 13.4541 16.0493 13.3221C16.1243 13.1902 16.1575 13.0386 16.1445 12.8874C16.0542 11.8448 15.9241 10.806 15.7545 9.77339C13.9334 10.5334 12.1919 11.4716 10.5555 12.5744C10.184 12.8246 9.74634 12.9583 9.29847 12.9583C8.85061 12.9583 8.41293 12.8246 8.04147 12.5744C7.63147 12.2994 7.21547 12.0334 6.79147 11.7774C6.73926 13.0026 6.36539 14.1935 5.70747 15.2284C5.28792 14.9564 4.86074 14.6953 4.42647 14.4474C4.99707 13.5602 5.29982 12.5273 5.29847 11.4724V10.9324V10.9314Z" fill="#F14B8F"/>
</svg>
