<svg width="19" height="17" viewBox="0 0 19 17" fill="none" xmlns="http://www.w3.org/2000/svg">
<path d="M14.416 1.16737C14.4615 1.25481 14.4893 1.35037 14.4979 1.44858C14.5064 1.54679 14.4955 1.64571 14.4658 1.7397C14.4361 1.8337 14.3881 1.92091 14.3247 1.99635C14.2612 2.07179 14.1835 2.13398 14.096 2.17937L13.5 2.48937V15.7634C13.5 16.0286 13.3946 16.2829 13.2071 16.4705C13.0196 16.658 12.7652 16.7634 12.5 16.7634H10.24C10.0411 16.7634 9.85032 16.6843 9.70967 16.5437C9.56902 16.403 9.49 16.2123 9.49 16.0134V12.5134C9.49 12.3145 9.41098 12.1237 9.27033 11.983C9.12968 11.8424 8.93891 11.7634 8.74 11.7634H6.25C6.05109 11.7634 5.86032 11.8424 5.71967 11.983C5.57902 12.1237 5.5 12.3145 5.5 12.5134V16.0134C5.5 16.2123 5.42098 16.403 5.28033 16.5437C5.13968 16.6843 4.94891 16.7634 4.75 16.7634H1.25C1.05109 16.7634 0.860322 16.6843 0.71967 16.5437C0.579018 16.403 0.5 16.2123 0.5 16.0134C0.5 15.8145 0.579018 15.6237 0.71967 15.483C0.860322 15.3424 1.05109 15.2634 1.25 15.2634H1.5V8.72037C1.32128 8.78268 1.1256 8.77512 0.952225 8.6992C0.778845 8.62328 0.640582 8.48461 0.565169 8.31101C0.489756 8.1374 0.48277 7.94171 0.545612 7.76317C0.608453 7.58463 0.736476 7.43646 0.904 7.34837L1.5 7.03837V4.51337C1.5 4.31445 1.57902 4.12369 1.71967 3.98304C1.86032 3.84238 2.05109 3.76337 2.25 3.76337C2.44891 3.76337 2.63968 3.84238 2.78033 3.98304C2.92098 4.12369 3 4.31445 3 4.51337V6.25837L13.404 0.848366C13.4914 0.80286 13.587 0.775039 13.6852 0.766495C13.7834 0.75795 13.8823 0.76885 13.9763 0.79857C14.0703 0.828291 14.1575 0.876249 14.233 0.939702C14.3084 1.00315 14.3706 1.07986 14.416 1.16737ZM15.361 7.33337C15.4712 7.26625 15.5968 7.22869 15.7257 7.22431C15.8546 7.21993 15.9825 7.24888 16.097 7.30837L18.096 8.34837C18.2635 8.43646 18.3915 8.58463 18.4544 8.76317C18.5172 8.94171 18.5102 9.1374 18.4348 9.31101C18.3594 9.48461 18.2212 9.62328 18.0478 9.6992C17.8744 9.77512 17.6787 9.78268 17.5 9.72037V15.2634H17.75C17.9489 15.2634 18.1397 15.3424 18.2803 15.483C18.421 15.6237 18.5 15.8145 18.5 16.0134C18.5 16.2123 18.421 16.403 18.2803 16.5437C18.1397 16.6843 17.9489 16.7634 17.75 16.7634H15.75C15.5511 16.7634 15.3603 16.6843 15.2197 16.5437C15.079 16.403 15 16.2123 15 16.0134V7.97337C15.0002 7.84468 15.0335 7.71821 15.0968 7.60613C15.16 7.49404 15.251 7.40011 15.361 7.33337Z" fill="#F14B8F"/>
</svg>
