<svg width="37" height="36" viewBox="0 0 37 36" fill="none" xmlns="http://www.w3.org/2000/svg">
<path opacity="0.25" fill-rule="evenodd" clip-rule="evenodd" d="M18.3629 35.374C28.5045 35.374 36.7259 27.539 36.7259 17.874C36.7259 8.20904 28.5045 0.374023 18.3629 0.374023C8.22136 0.374023 0 8.20904 0 17.874C0 27.539 8.22136 35.374 18.3629 35.374Z" fill="#F14B8F"/>
<path d="M15.77 11.374H21.23C23.31 11.374 25 13.064 25 15.144V20.604C25 21.6039 24.6028 22.5628 23.8958 23.2698C23.1888 23.9768 22.2299 24.374 21.23 24.374H15.77C13.69 24.374 12 22.684 12 20.604V15.144C12 14.1442 12.3972 13.1852 13.1042 12.4782C13.8112 11.7712 14.7701 11.374 15.77 11.374ZM15.64 12.674C15.0194 12.674 14.4242 12.9206 13.9854 13.3594C13.5465 13.7982 13.3 14.3934 13.3 15.014V20.734C13.3 22.0275 14.3465 23.074 15.64 23.074H21.36C21.9806 23.074 22.5758 22.8275 23.0146 22.3887C23.4535 21.9498 23.7 21.3546 23.7 20.734V15.014C23.7 13.7205 22.6535 12.674 21.36 12.674H15.64ZM21.9125 13.649C22.128 13.649 22.3347 13.7346 22.487 13.887C22.6394 14.0394 22.725 14.246 22.725 14.4615C22.725 14.677 22.6394 14.8837 22.487 15.036C22.3347 15.1884 22.128 15.274 21.9125 15.274C21.697 15.274 21.4903 15.1884 21.338 15.036C21.1856 14.8837 21.1 14.677 21.1 14.4615C21.1 14.246 21.1856 14.0394 21.338 13.887C21.4903 13.7346 21.697 13.649 21.9125 13.649ZM18.5 14.624C19.362 14.624 20.1886 14.9664 20.7981 15.5759C21.4076 16.1854 21.75 17.0121 21.75 17.874C21.75 18.736 21.4076 19.5626 20.7981 20.1721C20.1886 20.7816 19.362 21.124 18.5 21.124C17.638 21.124 16.8114 20.7816 16.2019 20.1721C15.5924 19.5626 15.25 18.736 15.25 17.874C15.25 17.0121 15.5924 16.1854 16.2019 15.5759C16.8114 14.9664 17.638 14.624 18.5 14.624ZM18.5 15.924C17.9828 15.924 17.4868 16.1295 17.1211 16.4952C16.7554 16.8609 16.55 17.3569 16.55 17.874C16.55 18.3912 16.7554 18.8872 17.1211 19.2529C17.4868 19.6186 17.9828 19.824 18.5 19.824C19.0172 19.824 19.5132 19.6186 19.8789 19.2529C20.2446 18.8872 20.45 18.3912 20.45 17.874C20.45 17.3569 20.2446 16.8609 19.8789 16.4952C19.5132 16.1295 19.0172 15.924 18.5 15.924Z" fill="#F14B8F"/>
</svg>
