<svg width="22" height="28" viewBox="0 0 22 28" fill="none" xmlns="http://www.w3.org/2000/svg">
<g id="Voice 2">
<path id="Voice 2_2" fill-rule="evenodd" clip-rule="evenodd" d="M11.2184 18.0004H10.7813C7.77708 18.0004 5.34197 15.4354 5.34197 12.2722V6.10786C5.34197 2.9434 7.77708 0.378418 10.7813 0.378418H11.2184C13.7117 0.378418 15.8126 2.14368 16.4556 4.55306C16.544 4.88341 16.3103 5.2112 15.9857 5.2112H14.5702C14.1428 5.2112 13.7952 5.57599 13.7952 6.02623V6.02751C13.7952 6.47903 14.1428 6.84381 14.5702 6.84381H15.8755C16.3078 6.84381 16.659 7.21243 16.659 7.66777C16.659 8.12312 16.3078 8.49173 15.8755 8.49173H14.5702C14.1428 8.49173 13.7952 8.85779 13.7952 9.30931C13.7952 9.75956 14.1428 10.1256 14.5702 10.1256H15.8755C16.3078 10.1256 16.659 10.4942 16.659 10.9509C16.659 11.4049 16.3078 11.7735 15.8755 11.7735H14.5702C14.1428 11.7735 13.7952 12.1396 13.7952 12.5911C13.7952 13.0414 14.1428 13.4061 14.5702 13.4061H15.9167C16.2485 13.4061 16.4858 13.748 16.3817 14.0796C15.6636 16.3576 13.6245 18.0004 11.2184 18.0004ZM19.2032 12.0888C19.2032 11.3835 19.7457 10.8134 20.4141 10.8134C21.0825 10.8134 21.625 11.3835 21.625 12.0888C21.625 17.8272 17.5007 22.5656 12.2115 23.2021V25.7696C12.2115 26.4737 11.669 27.0451 11.0006 27.0451C10.331 27.0451 9.78971 26.4737 9.78971 25.7696V23.2021C4.49931 22.5656 0.375 17.8272 0.375 12.0888C0.375 11.3835 0.917481 10.8134 1.5859 10.8134C2.25431 10.8134 2.79679 11.3835 2.79679 12.0888C2.79679 16.8527 6.4767 20.7289 11.0006 20.7289C15.5233 20.7289 19.2032 16.8527 19.2032 12.0888Z" fill="#AD1F59"/>
</g>
</svg>
