<svg width="17" height="17" viewBox="0 0 17 17" fill="none" xmlns="http://www.w3.org/2000/svg">
<path fill-rule="evenodd" clip-rule="evenodd" d="M0.5 2.96191C0.5 2.36518 0.737053 1.79288 1.15901 1.37092C1.58097 0.948967 2.15326 0.711914 2.75 0.711914H14.25C14.8467 0.711914 15.419 0.948967 15.841 1.37092C16.2629 1.79288 16.5 2.36518 16.5 2.96191V11.4619C16.5 12.0587 16.2629 12.6309 15.841 13.0529C15.419 13.4749 14.8467 13.7119 14.25 13.7119H11.145C11.3403 14.3662 11.7226 14.9491 12.245 15.3889C12.3625 15.4882 12.4467 15.6211 12.4861 15.7698C12.5255 15.9185 12.5182 16.0757 12.4653 16.2201C12.4123 16.3645 12.3163 16.4891 12.1901 16.5771C12.064 16.6651 11.9138 16.7121 11.76 16.7119H5.24C5.08628 16.7119 4.93627 16.6647 4.81027 16.5767C4.68427 16.4886 4.58838 16.364 4.53557 16.2196C4.48275 16.0752 4.47557 15.9181 4.515 15.7695C4.55443 15.621 4.63856 15.4881 4.756 15.3889C5.27799 14.949 5.65999 14.3661 5.855 13.7119H2.75C2.15326 13.7119 1.58097 13.4749 1.15901 13.0529C0.737053 12.6309 0.5 12.0587 0.5 11.4619V2.96191ZM2 2.96191C2 2.763 2.07902 2.57224 2.21967 2.43158C2.36032 2.29093 2.55109 2.21191 2.75 2.21191H14.25C14.4489 2.21191 14.6397 2.29093 14.7803 2.43158C14.921 2.57224 15 2.763 15 2.96191V10.4619C15 10.6608 14.921 10.8516 14.7803 10.9922C14.6397 11.1329 14.4489 11.2119 14.25 11.2119H2.75C2.55109 11.2119 2.36032 11.1329 2.21967 10.9922C2.07902 10.8516 2 10.6608 2 10.4619V2.96191Z" fill="#F14B8F"/>
</svg>
