<svg width="25" height="25" viewBox="0 0 25 25" fill="none" xmlns="http://www.w3.org/2000/svg">
<path d="M4 3.51084C4 2.58259 4.36875 1.69235 5.02513 1.03597C5.6815 0.379592 6.57174 0.0108431 7.5 0.0108431C8.42826 0.0108431 9.3185 0.379592 9.97487 1.03597C10.6313 1.69235 11 2.58259 11 3.51084C11 4.4391 10.6313 5.32934 9.97487 5.98572C9.3185 6.64209 8.42826 7.01084 7.5 7.01084C6.57174 7.01084 5.6815 6.64209 5.02513 5.98572C4.36875 5.32934 4 4.4391 4 3.51084ZM7.5 1.76084C7.03587 1.76084 6.59075 1.94522 6.26256 2.27341C5.93437 2.60159 5.75 3.04671 5.75 3.51084C5.75 3.97497 5.93437 4.42009 6.26256 4.74828C6.59075 5.07647 7.03587 5.26084 7.5 5.26084C7.96413 5.26084 8.40925 5.07647 8.73744 4.74828C9.06563 4.42009 9.25 3.97497 9.25 3.51084C9.25 3.04671 9.06563 2.60159 8.73744 2.27341C8.40925 1.94522 7.96413 1.76084 7.5 1.76084ZM15.8633 6.28284C15.4966 6.00318 15.1889 5.65383 14.9577 5.25486C14.7265 4.85588 14.5764 4.41516 14.516 3.958C14.4557 3.50084 14.4863 3.03627 14.606 2.59097C14.7258 2.14568 14.9324 1.72844 15.2139 1.36322C15.4954 0.99801 15.8463 0.692026 16.2465 0.462854C16.6466 0.233681 17.0881 0.085837 17.5455 0.0278165C18.003 -0.0302039 18.4674 0.00274285 18.9121 0.124764C19.3568 0.246785 19.773 0.455475 20.1367 0.738843C20.853 1.3118 21.3157 2.14303 21.4254 3.05369C21.535 3.96435 21.2827 4.88164 20.7229 5.60821C20.1631 6.33478 19.3404 6.81254 18.4319 6.93871C17.5234 7.06488 16.5999 6.82937 15.8633 6.28284ZM18 1.76084C17.5359 1.76084 17.0908 1.94522 16.7626 2.27341C16.4344 2.60159 16.25 3.04671 16.25 3.51084C16.25 3.97497 16.4344 4.42009 16.7626 4.74828C17.0908 5.07647 17.5359 5.26084 18 5.26084C18.4641 5.26084 18.9092 5.07647 19.2374 4.74828C19.5656 4.42009 19.75 3.97497 19.75 3.51084C19.75 3.04671 19.5656 2.60159 19.2374 2.27341C18.9092 1.94522 18.4641 1.76084 18 1.76084ZM3.125 8.76084H7.7975C7.605 9.30859 7.5 9.89834 7.5 10.5108H3.125C2.89294 10.5108 2.67038 10.603 2.50628 10.7671C2.34219 10.9312 2.25 11.1538 2.25 11.3858C2.25 12.8156 2.81875 13.8761 3.7165 14.5971C4.1295 14.9296 4.62475 15.1973 5.18475 15.3933C4.77351 15.8305 4.45661 16.3475 4.25375 16.9123C3.66633 16.6764 3.11633 16.3563 2.621 15.9621C1.305 14.9033 0.5 13.3388 0.5 11.3858C0.5 10.6896 0.776562 10.022 1.26884 9.52969C1.76113 9.0374 2.42881 8.76084 3.125 8.76084ZM9.719 8.76084C9.25487 9.56518 9.12927 10.5209 9.36983 11.4179C9.6104 12.3148 10.1974 13.0795 11.0017 13.5436C11.8061 14.0077 12.7619 14.1333 13.6588 13.8928C14.5557 13.6522 15.3204 13.0652 15.7845 12.2608C16.2486 11.4565 16.3742 10.5007 16.1337 9.6038C15.8931 8.70686 15.3061 7.94222 14.5018 7.47809C13.6974 7.01396 12.7416 6.88837 11.8447 7.12893C10.9478 7.36949 10.1831 7.95651 9.719 8.76084ZM12.358 8.80459C12.6144 8.74667 12.8805 8.74708 13.1368 8.80579C13.393 8.8645 13.6328 8.98001 13.8384 9.14379C14.044 9.30757 14.2102 9.51544 14.3247 9.75205C14.4392 9.98866 14.4991 10.248 14.5 10.5108C14.4999 10.8401 14.4068 11.1627 14.2316 11.4414C14.0564 11.7202 13.8061 11.9439 13.5094 12.0868C13.2128 12.2297 12.8818 12.2859 12.5546 12.2492C12.2274 12.2124 11.9172 12.0841 11.6597 11.8789C11.4021 11.6738 11.2077 11.4001 11.0987 11.0894C10.9897 10.7787 10.9705 10.4436 11.0435 10.1225C11.1164 9.80139 11.2785 9.50739 11.511 9.27427C11.7435 9.04114 12.0371 8.87835 12.358 8.80459ZM21.7835 14.5971C21.3705 14.9296 20.8752 15.1973 20.3153 15.3933C20.7259 15.8306 21.0422 16.3477 21.2445 16.9123C21.8395 16.6691 22.3908 16.3523 22.879 15.9621C24.195 14.9033 25 13.3388 25 11.3858C25 10.6896 24.7234 10.022 24.2312 9.52969C23.7389 9.0374 23.0712 8.76084 22.375 8.76084H17.7025C17.895 9.30859 18 9.89834 18 10.5108H22.375C22.6071 10.5108 22.8296 10.603 22.9937 10.7671C23.1578 10.9312 23.25 11.1538 23.25 11.3858C23.25 12.8156 22.6812 13.8761 21.7835 14.5971ZM17.125 15.7608C17.8212 15.7608 18.4889 16.0374 18.9812 16.5297C19.4734 17.022 19.75 17.6896 19.75 18.3858C19.75 20.3388 18.9468 21.9033 17.629 22.9621C16.3323 24.0033 14.5927 24.5108 12.75 24.5108C10.9073 24.5108 9.16775 24.0033 7.871 22.9621C6.555 21.9033 5.75 20.3388 5.75 18.3858C5.74908 18.0409 5.81634 17.6991 5.94794 17.3802C6.07953 17.0613 6.27285 16.7716 6.51678 16.5276C6.76072 16.2837 7.05047 16.0904 7.36936 15.9588C7.68826 15.8272 8.03002 15.7599 8.375 15.7608H17.125ZM17.125 17.5108H8.375C8.14294 17.5108 7.92038 17.603 7.75628 17.7671C7.59219 17.9312 7.5 18.1538 7.5 18.3858C7.5 19.8156 8.06875 20.8761 8.9665 21.5971C9.887 22.3356 11.21 22.7608 12.75 22.7608C14.29 22.7608 15.613 22.3356 16.5335 21.5971C17.4312 20.8761 18 19.8156 18 18.3858C18 18.1538 17.9078 17.9312 17.7437 17.7671C17.5796 17.603 17.3571 17.5108 17.125 17.5108Z" fill="#F14B8F"/>
</svg>
