<svg width="7" height="11" viewBox="0 0 7 11" fill="none" xmlns="http://www.w3.org/2000/svg">
<path fill-rule="evenodd" clip-rule="evenodd" d="M0.709993 9.9818C0.572163 9.83854 0.496848 9.64642 0.500598 9.44766C0.504348 9.2489 0.586857 9.05976 0.729993 8.9218L4.66799 5.2118L0.729993 1.5018C0.655649 1.43436 0.595597 1.35269 0.553396 1.26162C0.511195 1.17055 0.487704 1.07193 0.484314 0.971615C0.480925 0.871299 0.497706 0.771323 0.533663 0.677612C0.569621 0.5839 0.624023 0.498359 0.693646 0.426058C0.76327 0.353757 0.846697 0.296167 0.938986 0.2567C1.03127 0.217233 1.13055 0.196692 1.23092 0.196295C1.33129 0.195898 1.43072 0.215652 1.52332 0.254388C1.61592 0.293123 1.6998 0.350051 1.76999 0.421799L6.26999 4.6718C6.34258 4.74176 6.40032 4.82564 6.43975 4.91842C6.47919 5.0112 6.49951 5.11098 6.49951 5.2118C6.49951 5.31261 6.47919 5.41239 6.43975 5.50518C6.40032 5.59796 6.34258 5.68184 6.26999 5.7518L1.76999 10.0018C1.62674 10.1396 1.43462 10.2149 1.23585 10.2112C1.03709 10.2074 0.847951 10.1249 0.709993 9.9818Z" fill="#8B1042"/>
</svg>
