<svg width="27" height="23" viewBox="0 0 27 23" fill="none" xmlns="http://www.w3.org/2000/svg">
<path d="M26.4236 8.91207C26.4525 8.80882 26.4866 8.70819 26.5111 8.60319C26.5163 8.58219 26.5181 8.56119 26.5233 8.54019C26.7733 7.53119 26.7723 6.47633 26.5205 5.46779C26.2687 4.45926 25.7737 3.52775 25.0787 2.75469C24.4379 1.89302 23.603 1.19455 22.6417 0.715968C21.6805 0.237381 20.6199 -0.00784373 19.5461 0.00019127H19.5006C19.4131 0.00019127 19.3151 0.00631647 19.2223 0.00894147H19.1165C17.2672 0.110972 15.4291 0.360853 13.6197 0.756192L9.70234 0.130566H9.67172C7.8059 -0.191783 5.88586 0.116063 4.21434 1.00557C3.27266 1.5731 2.46398 2.33642 1.8431 3.24382L1.80722 3.29194L1.78535 3.32257C0.963944 4.54106 0.517285 5.97339 0.500492 7.4428C0.483698 8.9122 0.897506 10.3544 1.69085 11.5913C1.67422 11.6211 1.6646 11.6543 1.64885 11.6849C1.57301 11.8366 1.50838 11.9937 1.45547 12.1548C1.42747 12.2423 1.40647 12.3351 1.38635 12.4261C1.3706 12.5004 1.35485 12.5739 1.34435 12.6483C1.33355 12.741 1.32712 12.8341 1.3251 12.9274C1.3251 13.0027 1.31635 13.0762 1.31985 13.1506C1.32597 13.2486 1.33735 13.3457 1.3531 13.4428C1.3636 13.5119 1.36885 13.5811 1.3846 13.6493C1.41085 13.7569 1.44585 13.8628 1.4861 13.9661C1.50622 14.0212 1.51935 14.0781 1.54385 14.1323C1.6156 14.2924 1.7031 14.4438 1.80635 14.5856C2.20223 15.1524 2.78637 15.5605 3.45484 15.7371C3.4299 16.1102 3.49201 16.484 3.63627 16.829C3.78052 17.174 4.00299 17.4808 4.2861 17.7251C4.78751 18.1644 5.40246 18.4537 6.0606 18.5598C6.19622 18.9999 6.43422 19.4016 6.75447 19.7323C7.19138 20.206 7.78188 20.5098 8.42134 20.5898C8.5736 21.1087 8.86234 21.5777 9.25784 21.9461C9.74522 22.4256 10.398 22.6986 11.0813 22.7073C11.5839 22.7049 12.0776 22.5742 12.5155 22.3276C13.1665 22.7003 13.9295 22.8263 14.6662 22.6828C15.0529 22.6121 15.4193 22.4571 15.7394 22.2289C16.0596 22.0007 16.3256 21.7049 16.5186 21.3624C16.537 21.3336 16.5475 21.3082 16.5641 21.2793C17.3078 21.4316 18.0822 21.2977 18.7323 20.9048C19.3041 20.582 19.7393 20.0628 19.9573 19.4436C20.7396 19.4541 21.4973 19.1723 22.081 18.6517C22.4008 18.3722 22.6491 18.0202 22.8053 17.6253C22.9614 17.2303 23.0209 16.8037 22.9787 16.3811C22.9787 16.3566 22.9726 16.3373 22.9708 16.3137C23.4275 16.1768 23.8383 15.9182 24.1591 15.5656C24.5738 15.1282 24.8408 14.5717 24.9225 13.9746C25.0041 13.3774 24.8962 12.7697 24.6141 12.2371C25.4007 11.3281 25.9959 10.2699 26.3641 9.12557C26.3851 9.05819 26.4026 8.98469 26.4236 8.91207ZM24.9256 7.42457C24.882 7.86451 24.7853 8.29757 24.6377 8.71432L24.6097 8.80182C24.319 9.58024 23.8995 10.3043 23.369 10.9438C20.6241 8.54807 16.6315 5.05157 16.3033 4.73832C15.9243 4.37555 15.421 4.17144 14.8963 4.16782C14.7336 4.16641 14.5717 4.18972 14.416 4.23694C13.8612 4.41194 12.498 4.84944 11.308 5.29132C10.853 5.46019 10.3332 5.02882 10.1748 4.66132C10.0698 4.44082 10.0523 4.18882 10.1241 3.95607C10.2667 3.69794 10.5065 3.50632 10.79 3.42407C13.4816 2.47786 16.2939 1.91812 19.1427 1.76157H19.2486C19.3457 1.76157 19.442 1.75457 19.5312 1.75282C20.1847 1.74207 20.8336 1.86504 21.4378 2.11419C22.3339 2.52265 23.1207 3.13731 23.7338 3.90794C24.2812 4.52737 24.6639 5.27449 24.8468 6.08057L24.8547 6.12082C24.8968 6.33622 24.9234 6.55436 24.9343 6.77357C24.937 6.84444 24.9413 6.93369 24.9413 7.01244C24.9413 7.13932 24.9413 7.26532 24.9265 7.39044L24.9256 7.42457ZM3.08997 13.2512C3.08385 13.2136 3.08385 13.1724 3.08385 13.1331C3.07419 13.0488 3.07419 12.9636 3.08385 12.8793C3.0935 12.8296 3.10607 12.7805 3.12147 12.7323C3.13897 12.6544 3.16522 12.5783 3.19672 12.5057C3.2256 12.4532 3.25885 12.4024 3.2956 12.3552C3.34767 12.2698 3.41094 12.1919 3.48372 12.1233L3.48897 12.1189L5.13484 10.7233C5.2442 10.6391 5.36908 10.5773 5.50234 10.5414C5.63561 10.5055 5.77465 10.4962 5.9115 10.5141C6.04836 10.532 6.18035 10.5766 6.29992 10.6456C6.41949 10.7145 6.5243 10.8063 6.60835 10.9158C6.66955 11.0054 6.70928 11.1079 6.72445 11.2153C6.73963 11.3228 6.72984 11.4323 6.69585 11.5353L4.1146 14.0501C3.93641 14.0533 3.76044 14.0102 3.60386 13.9251C3.44728 13.84 3.31544 13.7157 3.22122 13.5644C3.1562 13.4703 3.1115 13.3636 3.08997 13.2512ZM5.29147 15.3468L8.12384 12.5871L8.11072 12.5739C8.27009 12.4946 8.45011 12.4665 8.62609 12.4934C8.85097 12.5547 9.05397 12.6807 9.20884 12.8557C9.36284 12.9869 9.46609 13.1672 9.50109 13.3667C9.51411 13.5688 9.46983 13.7705 9.37334 13.9486C9.36442 13.9729 9.35682 13.9978 9.35059 14.0229L6.48847 16.8116C6.28765 16.8203 6.08729 16.7858 5.90099 16.7103C5.71469 16.6348 5.5468 16.5201 5.40872 16.3741C5.29509 16.2309 5.22387 16.0588 5.20314 15.8772C5.18242 15.6956 5.21302 15.5119 5.29147 15.3468ZM7.72834 18.0462L10.6858 15.1683C10.874 15.2059 11.0463 15.3022 11.1776 15.4431C11.359 15.6019 11.4852 15.8142 11.5381 16.0494C11.5519 16.1506 11.5475 16.2535 11.525 16.3531L8.96734 18.8424C8.79671 18.8741 8.62082 18.8618 8.45625 18.8067C8.29168 18.7516 8.14386 18.6555 8.02672 18.5274C7.89007 18.3933 7.78773 18.2282 7.72834 18.0462ZM10.4732 20.6817C10.315 20.5419 10.19 20.3685 10.1075 20.1742L12.5233 17.8231C12.6957 17.8799 12.8532 17.9736 12.9853 18.0969C13.1087 18.1955 13.2018 18.3268 13.254 18.4758C13.2837 18.5861 13.2837 18.7024 13.254 18.8127C13.1447 19.1657 12.9625 19.4918 12.7193 19.7699L12.0578 20.5399H12.0631C12.0412 20.5539 12.0167 20.5601 11.9966 20.5758C11.7499 20.801 11.4324 20.9331 11.0988 20.9494C10.8633 20.9455 10.6387 20.8493 10.4732 20.6817ZM14.388 20.9503C14.2585 20.9704 14.1281 20.9766 13.9977 20.9678L14.0625 20.8926L14.0835 20.8672L14.0843 20.8681C14.3495 20.5403 14.574 20.1815 14.7528 19.7997L15.1396 20.2092C15.1079 20.2916 15.0699 20.3715 15.0258 20.4481C14.9635 20.5739 14.8739 20.6842 14.7635 20.7711C14.6532 20.858 14.5249 20.9192 14.388 20.9503ZM19.988 17.6909L18.4313 15.9663C18.2977 15.8099 18.1131 15.7057 17.9102 15.6719C17.7072 15.6382 17.4989 15.6771 17.3218 15.7819C17.1448 15.8866 17.0103 16.0505 16.9421 16.2446C16.8739 16.4387 16.8764 16.6506 16.9491 16.8431C16.9896 16.9522 17.0515 17.0521 17.1311 17.1371L18.3876 18.5371C18.3788 18.6263 18.3605 18.7147 18.3325 18.7996C18.2596 19.0474 18.0933 19.2573 17.8687 19.3849C17.5952 19.5644 17.2632 19.632 16.9412 19.5739L15.8912 18.4592C15.7779 18.34 15.633 18.2554 15.4734 18.2153C15.3139 18.1751 15.1462 18.1811 14.99 18.2326C14.9764 18.1476 14.958 18.0634 14.9348 17.9806C14.7904 17.5233 14.5217 17.1153 14.1587 16.8019C13.9044 16.5699 13.6131 16.3821 13.2968 16.2463C13.3029 16.0835 13.2927 15.9205 13.2662 15.7598C13.1534 15.164 12.854 14.6194 12.4113 14.2049C12.0896 13.8791 11.6917 13.6386 11.2537 13.5049C11.2581 13.3877 11.2537 13.2713 11.2406 13.1549C11.1588 12.5656 10.8771 12.0223 10.4426 11.6158C10.0469 11.2016 9.53864 10.9123 8.98047 10.7837C8.7906 10.747 8.59694 10.7338 8.40384 10.7443C8.33517 10.4193 8.19631 10.1132 7.99697 9.84744C7.77233 9.55572 7.49237 9.31117 7.1731 9.12778C6.85383 8.9444 6.50153 8.82578 6.13636 8.77873C5.77119 8.73167 5.40033 8.75709 5.045 8.85354C4.68967 8.94999 4.35685 9.11558 4.0656 9.34082L4.03497 9.36532L2.95434 10.2753C2.44764 9.35259 2.2052 8.30801 2.25367 7.25644C2.30214 6.20486 2.63966 5.18701 3.22909 4.31482L3.24747 4.28857C3.72656 3.57423 4.35499 2.97237 5.08934 2.52457C6.42894 1.8269 7.96287 1.59568 9.44859 1.86744L9.85459 1.93219C9.25476 2.20248 8.77563 2.68442 8.50884 3.28582C8.37988 3.61578 8.31854 3.9683 8.32846 4.32243C8.33838 4.67656 8.41936 5.02509 8.56659 5.34732C8.8287 5.98127 9.31752 6.49489 9.93774 6.78802C10.558 7.08114 11.2651 7.13276 11.9213 6.93282C13.0763 6.50494 14.4011 6.07532 14.8963 5.91869C14.9357 5.91739 14.9749 5.92498 15.0109 5.94088C15.047 5.95679 15.079 5.9806 15.1046 6.01057C15.5325 6.41307 20.6976 10.9342 22.8553 12.8146L23.0303 12.9642C23.1662 13.1843 23.2243 13.4436 23.1953 13.7006C23.1662 13.9576 23.0518 14.1975 22.8702 14.3817C22.7455 14.5161 22.5818 14.6079 22.4021 14.6442L20.8857 13.1068C20.7207 12.9497 20.5011 12.8629 20.2732 12.8646C20.0454 12.8664 19.8271 12.9566 19.6645 13.1163C19.502 13.2759 19.4078 13.4925 19.4018 13.7202C19.3959 13.948 19.4787 14.1692 19.6327 14.3371L21.0817 15.8053C21.0878 15.8316 21.0948 15.8578 21.1027 15.8832L21.1132 15.9103C21.1789 16.0971 21.2187 16.292 21.2313 16.4896C21.2556 16.6396 21.2427 16.7933 21.1938 16.9371C21.1448 17.081 21.0612 17.2106 20.9505 17.3147C20.6888 17.5597 20.3432 17.6944 19.9853 17.6909H19.988Z" fill="#F14B8F"/>
</svg>
