<svg width="38" height="36" viewBox="0 0 38 36" fill="none" xmlns="http://www.w3.org/2000/svg">
<path opacity="0.25" fill-rule="evenodd" clip-rule="evenodd" d="M19.2955 35.374C29.4371 35.374 37.6585 27.539 37.6585 17.874C37.6585 8.20904 29.4371 0.374023 19.2955 0.374023C9.15398 0.374023 0.932617 8.20904 0.932617 17.874C0.932617 27.539 9.15398 35.374 19.2955 35.374Z" fill="#F14B8F"/>
<path d="M25.2967 14.6387C25.2115 14.5469 25.0741 14.5238 24.9614 14.5804C24.8914 14.6156 24.7596 14.6618 24.6032 14.7074C24.8005 14.4502 24.9592 14.1622 25.0293 13.9033C25.0596 13.7918 25.0153 13.6741 24.9188 13.6076C24.8224 13.5417 24.694 13.5417 24.5976 13.6076C24.4457 13.7115 23.7123 14.0237 23.2487 14.1248C22.2009 13.2251 20.9815 13.1317 19.7139 13.8572C18.6834 14.4469 18.4592 15.6461 18.5029 16.3771C16.1443 16.1545 14.6782 14.9333 13.853 13.9226C13.7952 13.8517 13.7022 13.8143 13.6147 13.8198C13.5227 13.8264 13.4398 13.8764 13.3927 13.9539C13.0025 14.5997 12.8943 15.3136 13.081 16.0188C13.183 16.4035 13.3613 16.7426 13.5682 17.0174C13.4689 16.9696 13.3731 16.9097 13.2828 16.8382C13.1998 16.7712 13.0838 16.7585 12.9857 16.8031C12.8881 16.8487 12.8259 16.9454 12.8259 17.0515C12.8259 18.2623 13.5984 19.0702 14.32 19.4923C14.2034 19.4786 14.0817 19.4533 13.9589 19.4164C13.8535 19.3851 13.7392 19.4164 13.6663 19.4978C13.5934 19.5786 13.576 19.694 13.6214 19.7924C14.0268 20.6712 14.7948 21.2758 15.7451 21.4951C14.9154 21.9727 13.8047 22.2068 12.7878 22.0919C12.656 22.0738 12.5304 22.1557 12.4889 22.2799C12.4474 22.4041 12.5018 22.5404 12.6179 22.6042C14.1608 23.4533 15.5556 23.7567 16.761 23.7567C18.5152 23.7567 19.8692 23.1148 20.6933 22.5778C22.9151 21.1323 24.2999 18.5371 24.107 16.215C24.463 15.9572 24.9956 15.4813 25.3259 14.9696C25.3943 14.8662 25.3819 14.7299 25.2967 14.6387Z" fill="#F14B8F"/>
</svg>
