<svg width="20" height="21" viewBox="0 0 20 21" fill="none" xmlns="http://www.w3.org/2000/svg">
<path d="M13.9551 16.7741C13.3833 16.7741 12.5799 16.5673 11.377 15.8952C9.91421 15.0749 8.78277 14.3176 7.32788 12.8665C5.92515 11.4647 5.24253 10.5571 4.28716 8.81858C3.20787 6.85569 3.39185 5.82678 3.59751 5.38703C3.84244 4.86145 4.20396 4.54709 4.67124 4.23508C4.93666 4.06118 5.21753 3.91212 5.51031 3.78977C5.5396 3.77717 5.56685 3.76516 5.59117 3.75432C5.73619 3.68899 5.95591 3.59026 6.23423 3.69572C6.41997 3.76545 6.5858 3.90813 6.84537 4.16447C7.37769 4.68947 8.10513 5.85871 8.37349 6.43293C8.55367 6.81994 8.6729 7.07541 8.6732 7.36194C8.6732 7.69738 8.50445 7.95608 8.29966 8.23527C8.26128 8.28772 8.2232 8.33781 8.18628 8.38645C7.96333 8.67942 7.91441 8.76408 7.94663 8.91526C8.01197 9.21906 8.49917 10.1235 9.29986 10.9224C10.1005 11.7213 10.9789 12.1778 11.2838 12.2428C11.4415 12.2765 11.5279 12.2255 11.8302 11.9946C11.8736 11.9615 11.9181 11.9273 11.9647 11.893C12.277 11.6607 12.5237 11.4963 12.8512 11.4963H12.853C13.138 11.4963 13.3821 11.6199 13.7864 11.8238C14.3137 12.0899 15.5181 12.8079 16.0463 13.3408C16.3033 13.5998 16.4465 13.7651 16.5166 13.9505C16.622 14.2297 16.5227 14.4486 16.458 14.595C16.4471 14.6194 16.4351 14.646 16.4225 14.6756C16.2992 14.9679 16.1492 15.2481 15.9746 15.5129C15.6631 15.9787 15.3476 16.3394 14.8209 16.5846C14.5504 16.7125 14.2543 16.7773 13.9551 16.7741Z" fill="#282A2D"/>
</svg>
