<svg width="24" height="24" viewBox="0 0 24 24" fill="none" xmlns="http://www.w3.org/2000/svg">
<path d="M10.0103 17C9.8129 17 9.61999 16.9414 9.45591 16.8316C9.29183 16.7219 9.16395 16.5659 9.08843 16.3834C9.01291 16.2009 8.99315 16.0001 9.03164 15.8064C9.07013 15.6127 9.16515 15.4348 9.30468 15.2951L12.5911 12.0061L9.30468 8.71718C9.20936 8.62504 9.13333 8.51484 9.08102 8.39298C9.02872 8.27113 9.00119 8.14007 9.00004 8.00745C8.99889 7.87484 9.02414 7.74332 9.07432 7.62057C9.1245 7.49783 9.1986 7.38631 9.29231 7.29253C9.38601 7.19876 9.49744 7.12459 9.62009 7.07437C9.74274 7.02416 9.87415 6.99889 10.0067 7.00004C10.1392 7.00119 10.2701 7.02874 10.3919 7.08109C10.5137 7.13343 10.6238 7.20952 10.7158 7.30491L14.7078 11.3C14.8949 11.4873 15 11.7413 15 12.0061C15 12.271 14.8949 12.525 14.7078 12.7123L10.7158 16.7074C10.5287 16.8947 10.2749 16.9999 10.0103 17Z" fill="white"/>
</svg>
