<svg width="67" height="67" viewBox="0 0 67 67" fill="none" xmlns="http://www.w3.org/2000/svg">
<path fill-rule="evenodd" clip-rule="evenodd" d="M36.3697 1.44909C36.5854 1.89269 36.4776 1.66596 36.8109 2.00112C37.0365 2.10956 37.2522 2.21799 37.4679 2.33629C38.7916 3.00661 40.88 3.11505 42.3116 2.67145C40.7722 1.34065 38.8994 0.118293 36.3599 1.44909H36.3697ZM24.4762 2.67145C25.7999 3.11505 27.9962 3.00661 29.3199 2.33629C30.0945 2.00112 30.2024 1.89269 30.4181 1.44909C27.7707 0.118293 26.1235 1.23222 24.4664 2.67145H24.4762ZM42.0959 0.00985775H40.88C41.537 1.00549 42.4194 1.44909 43.0862 2.88832C42.6449 3.44035 41.2134 4.21912 40.5565 4.55428C40.6643 4.77115 40.5565 4.66271 40.7722 4.77115C41.988 5.54991 44.1843 4.32755 45.9492 4.32755L43.4195 0.778762C42.9783 0.335163 42.5371 0.335163 42.0959 0V0.00985775ZM26.0156 0.00985775H24.7998C23.9174 0.561892 23.584 0.453456 22.5937 1.78425C22.1525 2.56301 21.27 3.55865 20.9464 4.33741C22.2701 4.33741 25.3489 5.66821 26.3392 4.67257C25.898 4.33741 25.4567 4.12054 25.0155 3.89381C24.5743 3.55865 24.1331 3.23334 23.7997 3.00661C24.0252 1.78425 25.3391 0.680185 26.0058 0.00985775H26.0156ZM15.6615 6.77227C17.3186 6.88071 20.064 7.32431 21.172 6.66384C20.3974 5.99351 19.0835 5.88508 18.4167 5.11617C18.6325 4.0121 19.8483 2.68131 20.2895 2.01098C17.3186 1.90255 16.8774 5.55977 15.6615 6.77227ZM48.3711 5.33304C47.9298 5.44148 47.5965 5.77664 47.0474 5.99351C46.8317 6.10195 46.6062 6.21038 46.3904 6.21038L45.7335 6.65398C46.7238 7.54118 49.6947 6.76242 51.1263 6.87085C50.9106 6.31882 50.5772 5.87522 50.3517 5.32318C49.3614 3.54879 49.028 2.10956 46.6062 2.00112C47.0474 2.88832 48.3711 3.88395 48.3711 5.32318V5.33304ZM49.5869 9.20714C49.8124 10.6464 54.3227 10.8731 55.313 11.7504C55.313 11.4153 54.7639 7.98478 54.6561 7.54118C54.3227 5.99351 53.6658 5.10631 52.2342 4.66271C52.5676 5.88508 53.1167 6.88071 53.1167 8.2115C53.1167 9.0987 52.5676 8.99027 51.793 9.0987C51.0184 9.0987 50.3615 9.20714 49.5869 9.20714ZM11.4748 11.7504C11.916 11.5336 12.3572 11.3068 12.9063 11.09C14.23 10.7548 16.6518 10.4295 17.2009 9.20714C16.3185 9.20714 14.5536 9.20714 13.7888 8.76354C13.5633 7.09758 14.23 5.99351 14.5634 4.66271C13.3475 5.10631 12.4651 6.10195 12.1415 7.43274C11.9258 8.31994 11.5925 10.7548 11.4846 11.7504H11.4748ZM7.95479 16.9553C8.50387 16.7385 8.83724 16.4033 9.38632 16.1766C10.4845 15.6245 12.7985 14.9542 13.2397 13.515C12.0239 13.6234 11.0336 13.8501 9.71969 13.7318C9.61184 13.0714 9.50398 12.401 9.61184 11.6223C9.61184 10.9618 9.82755 10.1831 9.82755 9.51273C7.29785 11.1787 8.06265 13.2784 7.95479 16.9356V16.9553ZM57.1858 13.7417C55.7542 13.8501 54.8718 13.6333 53.5481 13.5248C53.8815 14.412 54.9796 15.0725 55.9699 15.5161C58.1761 16.5117 56.9603 15.9597 58.833 17.0638C58.9409 14.6289 59.4899 10.5281 56.9603 9.64088C57.1858 11.3068 57.4015 11.9673 57.1858 13.7417ZM5.09173 22.4954C7.18019 20.721 5.64081 21.9433 7.95479 20.3858C8.9451 19.7254 10.0433 18.9466 10.3766 17.7242C9.27847 17.8327 8.06265 18.6114 6.52326 18.503C5.74866 16.9553 6.18989 15.733 5.97418 13.9586C3.32682 16.0681 4.75836 19.055 5.09173 22.4855V22.4954ZM60.3822 18.503C59.0585 18.7199 57.7348 17.951 56.5288 17.7242C56.9701 19.8338 59.8331 20.721 61.1568 21.8251C61.3725 22.0518 61.4902 22.1602 61.7059 22.4954C61.9314 22.1602 62.3628 18.6213 62.4805 17.8425C62.5883 15.9597 61.8235 14.7373 60.9411 13.9684C60.8332 15.6344 61.0489 16.9553 60.392 18.5129L60.3822 18.503ZM62.5883 24.3782C61.1568 24.2698 60.0586 23.1559 58.9507 22.7123C59.0585 24.7035 61.1568 26.1526 61.9216 27.1482C62.3628 27.5918 62.5785 27.927 62.9119 28.479L64.5689 24.4866C65.2259 22.939 65.118 21.1646 64.1277 20.0507C63.912 20.2675 63.6865 21.8251 63.4708 22.2687C63.2551 23.1559 62.9217 23.5994 62.5883 24.3782ZM3.88571 28.5875C3.99356 28.3607 4.32694 27.8087 4.87602 27.1482C5.31724 26.7046 5.65061 26.3695 6.09184 25.9259C6.74877 25.1471 7.74889 24.043 7.9646 22.7123C6.86643 23.1559 5.87613 24.1515 4.32694 24.3782C3.88571 23.9346 3.67 23.1558 3.33663 22.4954C3.12092 21.4997 3.00326 20.3858 2.67969 20.0605C2.13061 21.4997 1.35602 21.9433 2.23847 24.4965L3.89551 28.5973L3.88571 28.5875ZM63.4708 30.3619C62.6962 30.0267 62.3726 29.7014 61.8137 29.2578C61.3725 28.9226 60.8234 28.1537 60.2743 27.927C60.2743 30.145 61.3725 31.1406 62.3628 32.915C62.6962 33.5755 62.804 34.0191 63.1374 34.581L65.4514 31.0322C66.4417 29.4845 66.6672 28.4889 65.8926 26.4878C65.3435 27.0398 64.9023 29.3662 63.4708 30.3619ZM3.76805 34.5711C3.8759 34.236 4.20928 33.3488 4.42499 32.9052C5.30744 31.3575 6.51345 30.1351 6.51345 27.9171C5.73886 28.134 4.53284 30.1351 3.20916 30.352C2.76794 29.8 2.32671 29.2479 1.88549 28.4692C1.55212 27.9171 1.22855 26.8032 0.89518 26.4779C-0.0951264 29.6915 0.89518 30.2436 2.54242 32.6784C2.87579 33.2305 3.31702 34.1177 3.75824 34.5613L3.76805 34.5711ZM32.8497 34.9063C31.8594 34.4627 29.8788 33.2403 29.6533 32.2447C29.4376 30.9139 31.6339 30.1351 32.9576 29.9183L32.8497 34.9063ZM35.7128 30.2534C36.7031 30.8055 38.3601 31.2491 38.2425 32.6883C38.2425 33.6839 36.5854 34.6796 35.5951 35.0147L35.703 30.2534H35.7128ZM5.31724 41.7771C5.53295 39.5591 7.63123 35.9019 6.53306 34.6894C6.09184 35.5766 4.87602 37.2426 4.11122 37.7946C2.45418 37.0158 1.24816 34.6894 0.806935 34.581C0.591224 36.6905 1.14031 37.7946 2.23847 38.7902L5.32705 41.787L5.31724 41.7771ZM62.8139 37.7847C62.1569 37.4496 61.3823 36.2371 60.9411 35.5668L60.1665 34.6796C59.6174 37.7847 61.2647 38.9972 61.598 41.7673C61.8235 41.5504 62.6962 40.5449 62.9217 40.328C63.4708 39.776 64.0199 39.4408 64.5788 38.8888C65.7946 37.558 66.3437 37.006 66.0103 34.5711C65.7848 34.5711 64.1375 37.1243 62.8139 37.7847ZM35.3892 39.0071C35.9383 39.1155 36.605 40.2295 36.7129 40.9984C36.7129 41.994 35.9383 42.4376 35.1735 42.6643L35.3892 39.0071ZM32.634 42.7728C31.7516 42.5559 30.7613 41.7771 31.0946 40.5548C31.2025 39.776 32.0849 38.8888 32.7517 38.5635L32.6438 42.7728H32.634ZM33.0752 19.6169C31.7516 19.7254 28.8885 19.5085 28.5649 20.3957L28.3492 21.4997C30.0063 21.3913 30.9966 21.9433 31.6535 23.0474C32.3104 24.043 32.6438 25.6006 32.7517 26.9215C30.6632 26.4779 26.4765 24.2599 25.1528 22.4855C24.0546 21.2632 23.7213 19.3803 25.1528 18.4931C27.1334 17.2708 28.7904 18.158 30.5455 17.8327L30.7613 16.0583C28.4473 15.8315 25.8097 15.8315 24.1527 16.837C22.6133 17.7242 21.623 19.7155 22.4956 22.0419C23.1526 23.7079 24.7018 24.9204 26.1333 25.8076C27.8982 27.0299 30.6534 28.0256 31.0848 28.4692C29.4376 29.2479 26.8981 30.1351 27.7805 32.9052C28.3296 34.8964 31.4182 36.1188 31.9673 36.6708C31.4182 37.3411 28.8885 38.4452 28.9964 41.1068C28.9964 42.2109 29.5454 42.9896 30.2122 43.5417C31.3103 44.5373 31.9771 44.3204 32.634 44.764C32.7419 46.5384 32.634 48.4213 32.7419 50.1957C32.9576 52.0785 33.1831 53.6261 33.3988 55.2921C33.7322 54.9569 33.9479 53.4093 34.0557 52.8572C34.497 50.1957 34.8303 47.4256 34.9382 44.6556C36.154 44.3204 36.4776 44.3204 37.36 43.66C39.0171 42.3292 39.0171 40.3379 37.9091 38.6719C37.4679 38.0115 37.2522 37.7847 36.5854 37.3411C36.3697 37.1144 36.2521 37.1144 36.1442 36.7891C36.8011 36.5722 38.1248 35.7935 38.6739 35.4583C41.0957 33.5755 40.6545 30.8055 38.017 29.3662L36.8011 28.5875C38.1248 28.2523 40.9879 26.9215 42.086 26.261C44.4 24.8218 47.5965 22.2687 46.3806 19.2818C45.3903 16.7385 40.5467 16.0681 38.0072 16.0681V16.285C37.9353 16.285 37.8993 16.3211 37.8993 16.3934V16.837C37.7914 17.1722 37.7914 17.4975 37.7914 17.8327C51.4498 18.4931 41.537 25.5907 35.8108 26.9215C35.8108 23.5994 35.4775 23.7079 37.5757 22.4855C39.0073 21.8152 40.4388 21.2632 42.2037 20.9379L42.3116 19.7155C38.8994 19.7155 39.0073 19.7155 35.5951 19.3803C35.703 16.1667 35.4873 13.3967 33.7224 10.8534C29.3199 4.76129 25.3489 10.0746 27.7707 11.1885C29.8592 12.0757 31.5162 12.4109 32.5065 15.6245C32.8399 16.6202 33.1635 18.6213 33.0556 19.6169H33.0752ZM6.19969 43.4332C3.22877 43.2164 1.35602 40.6632 0.914791 40.4365C1.24816 43.2065 2.01295 43.8768 3.77785 45.0893C6.64092 46.8637 7.30766 46.085 7.85674 48.5297C5.65061 48.3128 4.55245 47.1989 3.22877 46.2033C4.21908 51.7433 10.0629 51.1913 10.9355 52.5221C11.1512 52.8572 11.5925 53.5177 11.5925 53.8529C8.9451 53.9613 8.62153 53.5177 6.52326 52.8572C6.74878 53.5276 7.73908 54.7401 8.18031 55.0752C9.61184 56.2976 12.2592 56.406 14.132 56.5145C15.1223 56.5145 15.1223 56.406 15.6713 56.9581C16.0047 57.2932 16.3283 57.5101 16.5538 57.9537C14.2398 58.1706 13.2495 57.9537 11.161 57.6185C11.7101 59.0578 13.3672 60.3886 15.3478 60.6153L22.5054 60.3984C22.2897 60.0633 21.9564 59.8464 21.7308 59.4028C21.0739 58.5156 20.515 56.9679 19.9659 55.854C19.1913 54.188 18.3089 52.7488 16.8872 52.0883C16.995 53.636 17.4362 54.3063 17.4362 57.1848C16.995 56.9679 16.4459 55.9624 16.0047 55.4104C15.1223 54.188 15.8969 52.6404 14.5732 50.4224C14.2398 49.7521 13.475 48.9832 12.8083 48.7564C12.9161 49.8605 13.5829 52.7488 12.9161 53.636C12.4749 53.3008 12.1415 52.1968 11.9258 51.5264C11.3767 50.1957 11.7101 50.1957 11.818 48.7564C12.0435 47.2088 11.6023 44.4387 10.3864 44.1036C10.2786 45.0992 9.94521 48.4213 9.17061 48.7564C8.62153 48.5396 8.51368 47.2088 8.28816 46.6469C7.95479 45.2076 8.18031 45.4245 8.51368 44.0937C8.9549 42.4277 8.9549 40.2196 7.85674 39.3324C7.52337 39.8844 7.41551 40.8801 7.1998 41.5504C6.86643 42.4376 6.54287 42.8812 6.2095 43.4332H6.19969ZM57.7447 48.7466C56.7543 48.5297 56.6465 44.7542 56.5288 43.9853C55.313 44.6556 54.8718 46.8637 54.9894 48.7466C55.0973 50.1858 55.4307 50.1858 54.8816 51.5166C54.7737 52.0686 54.3325 53.3994 53.8913 53.6261C53.4501 52.2954 53.9991 50.1957 54.1168 48.7466C52.6853 49.2986 51.8028 50.9646 51.4694 52.8474C51.2537 54.1782 51.5773 54.3951 50.8125 55.4005C50.2634 56.061 50.0379 56.6229 49.381 57.1749C49.1653 55.4005 49.9301 53.7346 49.9301 52.0785C46.9591 53.1825 46.5179 58.5057 44.4196 60.3886L51.4694 60.6054C53.2343 60.3886 55.1071 59.1662 55.764 57.727C53.7834 57.727 52.6853 58.3874 50.4791 57.8354C50.6948 57.3918 51.0282 57.1749 51.3616 56.8398C52.3519 55.9526 56.7543 57.0665 58.8526 54.9569C59.4017 54.5133 60.1763 53.5177 60.5097 52.8474C58.3035 53.5177 57.98 53.9515 55.2248 53.843C55.9994 51.4082 56.8818 52.2953 60.1763 50.6294C62.1569 49.7422 63.1472 48.6381 63.7061 46.1934C63.3727 46.4103 63.0492 46.637 62.7158 46.9722C61.7255 47.6326 60.294 48.4114 58.9703 48.5198C59.186 48.0762 59.3037 47.6326 59.5194 47.189C59.8527 46.4103 60.843 46.5286 63.0394 45.0795C64.9121 43.8571 65.6867 43.3051 66.0103 40.4266C65.2357 40.8702 65.2357 41.4223 63.6963 42.3095C62.9217 42.7531 61.598 43.4135 60.6077 43.4135C59.9508 42.5263 59.3919 40.5351 59.1762 39.2043C58.8428 39.4211 59.0683 39.2043 58.735 39.5394C57.9604 40.6435 57.9604 42.6446 58.2937 43.9754C58.5094 45.1978 58.8428 45.1978 58.5094 46.5286C58.4016 47.189 58.1761 48.4114 57.7349 48.7466H57.7447ZM24.9175 61.7095C22.0544 62.9319 20.1816 62.5967 19.1913 63.0403C19.7404 63.3755 21.5053 63.9275 22.0544 64.1444C25.7999 65.0316 27.2315 62.4784 28.663 62.7051C28.8787 62.8136 30.8691 64.0359 31.1927 64.2528C30.2024 64.9133 27.555 64.2528 27.0059 64.2528L26.5647 65.2484C28.2218 66.0272 28.8787 66.7961 31.7418 66.0272C32.0751 65.9188 33.0654 65.4752 33.389 65.4752C33.7126 65.4752 35.703 66.2539 36.8011 66.3624C38.6739 66.4708 39.1151 65.8103 40.2133 65.3667L39.7721 64.2627C38.6739 64.3711 36.6933 64.9231 35.5853 64.2627C35.9187 64.0458 37.8993 62.8234 38.2327 62.715C39.8897 62.3798 41.4291 66.2638 47.5965 62.9417C45.2825 62.6066 43.8509 62.6066 41.8703 61.7194C42.086 59.8365 43.194 56.406 43.194 55.4005C41.6546 56.5046 39.8897 58.5057 38.6837 59.8365C37.9091 60.497 37.2522 61.2758 36.3697 61.9461C35.9285 62.2813 34.1636 63.7205 33.5067 63.7205C31.1927 63.7205 25.1332 56.2976 23.5938 55.4104C23.7016 57.2932 24.8096 59.6197 24.9175 61.7292V61.7095Z" fill="#AD1F59"/>
</svg>
